<svg width="105" height="133" viewBox="0 0 105 133" fill="none" xmlns="http://www.w3.org/2000/svg">
<path d="M8.34112 97.0014H96.2452C96.7998 97.0073 97.3475 97.1256 97.8549 97.349C98.3624 97.5724 98.819 97.8962 99.1971 98.3009C99.5752 98.7056 99.8669 99.1827 100.054 99.7033C100.242 100.224 100.322 100.777 100.288 101.329C98.1388 130.928 73.5424 130.928 52.2931 130.928C31.0439 130.928 6.57035 129.285 4.30826 101.329C4.2721 100.776 4.34918 100.222 4.53482 99.6994C4.72047 99.1771 5.01077 98.698 5.38807 98.2912C5.76537 97.8844 6.22177 97.5585 6.72945 97.3332C7.23714 97.108 7.78549 96.9882 8.34112 96.981V97.0014Z" fill="#DD0E0E"/>
<path d="M97.7601 58.4205H6.8365C6.53366 58.4193 6.23574 58.344 5.96882 58.2013C5.7019 58.0587 5.47412 57.8529 5.30544 57.6021C5.13675 57.3513 5.03229 57.0631 5.0012 56.7627C4.97012 56.4623 5.01336 56.1589 5.12714 55.8791C8.9945 46.5791 15.5398 38.631 23.9358 33.0392C32.3318 27.4475 42.2018 24.463 52.2983 24.463C62.3948 24.463 72.2648 27.4475 80.6608 33.0392C89.0568 38.631 95.6021 46.5791 99.4695 55.8791C99.5832 56.1589 99.6265 56.4623 99.5954 56.7627C99.5643 57.0631 99.4599 57.3513 99.2912 57.6021C99.1225 57.8529 98.8947 58.0587 98.6278 58.2013C98.3609 58.344 98.0629 58.4193 97.7601 58.4205V58.4205Z" fill="#DD0E0E"/>
<path d="M20.2612 44.852C19.9396 44.8483 19.6322 44.7195 19.4045 44.4932C19.2843 44.3748 19.1889 44.2338 19.1237 44.0783C19.0586 43.9229 19.0251 43.7561 19.0251 43.5876C19.0251 43.4191 19.0586 43.2523 19.1237 43.0969C19.1889 42.9415 19.2843 42.8004 19.4045 42.6821C25.8786 35.9566 34.3478 31.4825 43.5644 29.9188C43.9052 29.8611 44.2551 29.9407 44.5371 30.1401C44.819 30.3396 45.01 30.6426 45.0679 30.9824C45.1259 31.3223 45.046 31.6712 44.846 31.9524C44.646 32.2335 44.3421 32.424 44.0013 32.4817C35.3026 33.9293 27.3027 38.132 21.1865 44.4675C21.0654 44.5894 20.9212 44.6861 20.7624 44.7521C20.6036 44.8181 20.4333 44.852 20.2612 44.852V44.852Z" fill="#D7D7D7"/>
<path d="M18.0338 48.3204C18.0337 48.6046 17.9491 48.8824 17.7906 49.1186C17.632 49.3548 17.4067 49.5388 17.1432 49.6471C16.8797 49.7555 16.5899 49.7834 16.3105 49.7274C16.031 49.6713 15.7746 49.5337 15.5737 49.3322C15.3727 49.1306 15.2363 48.8741 15.1817 48.5951C15.1272 48.3161 15.1569 48.0273 15.2672 47.7652C15.3774 47.5031 15.5632 47.2795 15.801 47.1229C16.0389 46.9662 16.318 46.8835 16.603 46.8852C16.7916 46.8852 16.9784 46.9223 17.1525 46.9946C17.3267 47.0668 17.4848 47.1727 17.6177 47.306C17.7507 47.4394 17.8559 47.5977 17.9273 47.7718C17.9987 47.9459 18.0349 48.1323 18.0338 48.3204Z" fill="#D7D7D7"/>
<path d="M8.34109 99.0427C8.06385 99.0464 7.79025 99.1062 7.53689 99.2184C7.28352 99.3307 7.05567 99.4932 6.86715 99.6959C6.68128 99.8946 6.53889 100.13 6.44902 100.386C6.35916 100.643 6.32378 100.915 6.34513 101.186C8.39227 126.774 30.184 128.917 52.2931 128.917C73.8904 128.917 96.2349 128.917 98.2411 101.186C98.2549 100.914 98.2138 100.642 98.1203 100.385C98.0268 100.129 97.8828 99.8942 97.6967 99.6944C97.5107 99.4946 97.2864 99.334 97.0371 99.2221C96.7878 99.1102 96.5185 99.0492 96.2452 99.0427H8.34109ZM52.2931 133C34.5342 133 4.82001 133 2.27132 101.513C2.2033 100.679 2.30915 99.841 2.58221 99.0505C2.85527 98.26 3.28962 97.5345 3.85786 96.9197C4.43048 96.304 5.12396 95.8124 5.89521 95.4752C6.66646 95.1381 7.49899 94.9628 8.34109 94.9601H96.2452C97.0812 94.9666 97.9071 95.1433 98.6722 95.4794C99.4374 95.8154 100.126 96.3037 100.695 96.9143C101.264 97.525 101.702 98.245 101.983 99.0305C102.263 99.8159 102.38 100.65 102.325 101.482C100.043 133 73.5629 133 52.2931 133Z" fill="#D7D7D7"/>
<path d="M7.13325 56.3792H97.4632C93.7161 47.5215 87.4329 39.9622 79.3994 34.6472C71.366 29.3321 61.9391 26.4972 52.2982 26.4972C42.6573 26.4972 33.2304 29.3321 25.197 34.6472C17.1635 39.9622 10.8803 47.5215 7.13325 56.3792V56.3792ZM97.76 60.4619H6.83641C6.19651 60.4631 5.56619 60.3069 5.00131 60.0071C4.43643 59.7074 3.95445 59.2732 3.5981 58.7433C3.24174 58.2133 3.02202 57.6038 2.95841 56.9689C2.89481 56.334 2.98928 55.6932 3.23345 55.1034C7.25505 45.429 14.0627 37.1607 22.7959 31.3436C31.5291 25.5265 41.7958 22.4217 52.2982 22.4217C62.8006 22.4217 73.0673 25.5265 81.8005 31.3436C90.5337 37.1607 97.3414 45.429 101.363 55.1034C101.604 55.6939 101.696 56.3344 101.631 56.9687C101.566 57.603 101.347 58.2117 100.991 58.7416C100.635 59.2715 100.155 59.7063 99.5915 60.008C99.0283 60.3097 98.3994 60.469 97.76 60.4721V60.4619Z" fill="#D7D7D7"/>
<path d="M40.389 39.3649C39.985 39.6982 39.4723 39.8719 38.9483 39.8531C38.4243 39.8342 37.9254 39.6241 37.5465 39.2627C37.1676 38.9012 36.9351 38.4136 36.893 37.8924C36.8509 37.3712 37.0023 36.8528 37.3183 36.4356C38.1269 35.5782 41.7299 33.1695 42.5897 33.986C43.4495 34.8025 41.2386 38.5075 40.4197 39.3649H40.389Z" fill="#D7D7D7"/>
<path d="M19.1705 52.0313C18.9399 52.1914 18.68 52.3048 18.4056 52.3648C18.1311 52.4248 17.8475 52.4303 17.5709 52.381C17.2943 52.3317 17.0302 52.2286 16.7936 52.0775C16.557 51.9265 16.3525 51.7304 16.1919 51.5005C16.0312 51.2706 15.9176 51.0115 15.8574 50.7378C15.7972 50.4641 15.7917 50.1813 15.8411 49.9055C15.8905 49.6297 15.994 49.3663 16.1455 49.1304C16.297 48.8945 16.4936 48.6906 16.7241 48.5304C17.7477 47.8568 21.7089 46.2339 22.3845 47.2036C23.06 48.1732 20.1428 51.3576 19.1705 52.0313Z" fill="#D7D7D7"/>
<path d="M50.072 49.551C49.9987 50.1127 49.7046 50.6223 49.2545 50.9678C48.8043 51.3133 48.235 51.4664 47.6717 51.3933C47.1084 51.3202 46.5973 51.027 46.2508 50.5781C45.9043 50.1292 45.7508 49.5615 45.8241 48.9998C45.9777 47.8261 47.4823 43.7741 48.6492 43.8965C49.8161 44.019 50.2255 48.3568 50.072 49.5204V49.551Z" fill="#D7D7D7"/>
<path d="M67.4419 35.3332C67.7537 35.7557 67.8985 36.2779 67.8486 36.8001C67.7986 37.3223 67.5575 37.8078 67.1713 38.1639C66.785 38.52 66.2807 38.7217 65.7548 38.7305C65.2288 38.7393 64.718 38.5545 64.3201 38.2115C63.5114 37.3541 61.3108 33.6389 62.1705 32.8224C63.0303 32.0059 66.6231 34.4351 67.4419 35.2924V35.3332Z" fill="#D7D7D7"/>
<path d="M73.6857 49.9899C73.8941 50.1782 74.0632 50.4056 74.1834 50.6591C74.3036 50.9126 74.3726 51.1872 74.3864 51.4673C74.4002 51.7474 74.3585 52.0274 74.2637 52.2914C74.169 52.5554 74.023 52.7982 73.8342 53.006C73.6453 53.2137 73.4173 53.3823 73.163 53.5022C72.9088 53.6221 72.6334 53.6909 72.3526 53.7046C72.0717 53.7183 71.7909 53.6768 71.5261 53.5823C71.2614 53.4878 71.0179 53.3423 70.8095 53.154C69.9395 52.368 67.442 48.8264 68.2301 47.9588C69.0183 47.0912 72.8055 49.1938 73.6857 50.0001V49.9899Z" fill="#D7D7D7"/>
<path d="M84.7403 41.8144C85.0562 42.2714 85.1811 42.8332 85.0884 43.3806C84.9957 43.9279 84.6926 44.4176 84.2437 44.7458C83.7947 45.0739 83.2351 45.2146 82.6838 45.138C82.1324 45.0614 81.6328 44.7735 81.2909 44.3355C80.5846 43.3863 78.865 39.4261 79.8169 38.7321C80.7688 38.038 84.0443 40.8652 84.7403 41.794V41.8144Z" fill="#D7D7D7"/>
<path d="M86.5315 93.6434C81.4137 93.6434 78.8445 91.1734 76.5517 88.9994C74.5046 87.0296 72.8669 85.4781 69.3867 85.4781C65.9066 85.4781 64.2689 87.0296 62.2218 88.9994C59.9392 91.1734 57.3496 93.6434 52.2522 93.6434C47.1548 93.6434 44.555 91.1734 42.2724 88.9994C40.2253 87.0296 38.5876 85.4781 35.1074 85.4781C31.6273 85.4781 29.9896 87.0296 27.9424 88.9994C25.6599 91.1734 23.0703 93.6434 17.9729 93.6434C12.8755 93.6434 10.2859 91.1734 8.00333 88.9994C6.20185 87.2745 4.63579 85.7946 1.86192 85.5292C1.31898 85.4778 0.818773 85.2134 0.471332 84.7942C0.123891 84.375 -0.0423254 83.8353 0.00925342 83.2939C0.0608322 82.7526 0.32598 82.2538 0.746365 81.9073C1.16675 81.5609 1.70794 81.3951 2.25087 81.4466C6.47821 81.8548 8.81194 84.0696 10.8693 86.0395C12.9267 88.0094 14.5542 89.5506 18.0343 89.5506C21.5144 89.5506 23.1521 87.9992 25.1993 86.0395C27.4818 83.8553 30.0715 81.3853 35.1688 81.3853C40.2662 81.3853 42.8558 83.8553 45.1486 86.0395C47.1958 87.9992 48.8335 89.5506 52.3136 89.5506C55.7937 89.5506 57.4315 87.9992 59.4786 86.0395C61.7612 83.8553 64.3508 81.3853 69.4481 81.3853C74.5455 81.3853 77.1454 83.8553 79.4279 86.0395C81.4751 87.9992 83.1128 89.5506 86.5929 89.5506C90.0731 89.5506 91.7108 87.9992 93.7579 86.0395C95.805 84.0799 98.149 81.8548 102.387 81.4466C102.93 81.3951 103.471 81.5609 103.891 81.9073C104.311 82.2538 104.577 82.7526 104.628 83.2939C104.68 83.8353 104.514 84.375 104.166 84.7942C103.819 85.2134 103.318 85.4778 102.776 85.5292C99.9505 85.7946 98.3947 87.2745 96.6341 88.9994C94.3413 91.1734 91.7517 93.6434 86.6543 93.6434H86.5315Z" fill="#D7D7D7"/>
<path d="M53.2552 28.8112H53.071C52.531 28.762 52.0326 28.5012 51.6852 28.0859C51.3379 27.6707 51.17 27.135 51.2183 26.5964L53.4804 1.86585C53.5293 1.32446 53.7918 0.824603 54.2103 0.476236C54.6287 0.127869 55.1688 -0.0404688 55.7118 0.00825632C56.2547 0.0569815 56.756 0.318778 57.1054 0.736053C57.4547 1.15333 57.6235 1.6919 57.5747 2.23329L55.2921 26.9843C55.246 27.4932 55.0101 27.9664 54.6311 28.3103C54.2521 28.6543 53.7574 28.8439 53.245 28.8418L53.2552 28.8112Z" fill="#D7D7D7"/>
<path d="M56.5205 16.2164C59.2637 17.237 62.273 16.7675 65.4358 16.2164C68.5986 15.6652 71.9252 15.1243 75.3132 16.0633L76.0195 6.19349C73.2763 5.17284 70.267 5.64234 67.1144 6.19349C63.9618 6.74465 60.6148 7.27539 57.2268 6.33639L56.5205 16.2062V16.2164ZM77.1147 21.1053C76.7548 21.1077 76.401 21.0124 76.0911 20.8297C73.0204 19.0946 69.6529 19.6662 66.0602 20.2684C62.099 20.9318 57.6157 21.6871 53.3167 19.2477C52.9838 19.0572 52.7114 18.7773 52.5304 18.4398C52.3494 18.1023 52.2672 17.7209 52.2932 17.3391L53.3167 3.26421C53.3414 2.92056 53.4529 2.58872 53.6408 2.2996C53.8287 2.01049 54.087 1.77351 54.3915 1.61074C54.6953 1.44273 55.037 1.35458 55.3843 1.35458C55.7317 1.35458 56.0734 1.44273 56.3772 1.61074C59.4479 3.34586 62.8052 2.77429 66.3979 2.1721C70.3592 1.50867 74.8424 0.763594 79.1414 3.19276C79.4759 3.38401 79.7495 3.66558 79.9306 4.00505C80.1116 4.34452 80.1929 4.7281 80.1649 5.1116L79.1414 19.1763C79.1292 19.5183 79.0309 19.8518 78.8556 20.1461C78.6804 20.4404 78.4337 20.686 78.1383 20.8604C77.8426 21.0195 77.5121 21.1036 77.1761 21.1053H77.1147Z" fill="#D7D7D7"/>
<path d="M99.6331 67.1369H4.29797C3.75504 67.1369 3.23434 66.9219 2.85043 66.539C2.46651 66.1562 2.25084 65.637 2.25084 65.0956C2.25084 64.5542 2.46651 64.035 2.85043 63.6522C3.23434 63.2694 3.75504 63.0543 4.29797 63.0543H99.6331C100.176 63.0543 100.697 63.2694 101.081 63.6522C101.465 64.035 101.68 64.5542 101.68 65.0956C101.68 65.637 101.465 66.1562 101.081 66.539C100.697 66.9219 100.176 67.1369 99.6331 67.1369Z" fill="#D7D7D7"/>
<path d="M99.6331 79.64H4.29797C3.75504 79.64 3.23434 79.4249 2.85043 79.0421C2.46651 78.6593 2.25084 78.1401 2.25084 77.5987C2.25084 77.0573 2.46651 76.5381 2.85043 76.1553C3.23434 75.7724 3.75504 75.5574 4.29797 75.5574H99.6331C100.176 75.5574 100.697 75.7724 101.081 76.1553C101.465 76.5381 101.68 77.0573 101.68 77.5987C101.68 78.1401 101.465 78.6593 101.081 79.0421C100.697 79.4249 100.176 79.64 99.6331 79.64Z" fill="#D7D7D7"/>
<path d="M12.4559 73.2201H6.78534C6.38899 73.2201 6.00888 73.0631 5.72863 72.7836C5.44837 72.5042 5.29093 72.1251 5.29093 71.7299C5.29093 71.3347 5.44837 70.9557 5.72863 70.6762C6.00888 70.3967 6.38899 70.2397 6.78534 70.2397H12.4559C12.8522 70.2397 13.2324 70.3967 13.5126 70.6762C13.7929 70.9557 13.9503 71.3347 13.9503 71.7299C13.9503 72.1251 13.7929 72.5042 13.5126 72.7836C13.2324 73.0631 12.8522 73.2201 12.4559 73.2201V73.2201Z" fill="#D7D7D7"/>
<path d="M29.0889 73.2201H23.4183C23.022 73.2201 22.6419 73.0631 22.3616 72.7836C22.0814 72.5042 21.9239 72.1251 21.9239 71.7299C21.9239 71.3347 22.0814 70.9557 22.3616 70.6762C22.6419 70.3967 23.022 70.2397 23.4183 70.2397H29.0889C29.4852 70.2397 29.8653 70.3967 30.1456 70.6762C30.4259 70.9557 30.5833 71.3347 30.5833 71.7299C30.5833 72.1251 30.4259 72.5042 30.1456 72.7836C29.8653 73.0631 29.4852 73.2201 29.0889 73.2201Z" fill="#D7D7D7"/>
<path d="M45.7219 73.2201H40.0513C39.655 73.2201 39.2749 73.0631 38.9946 72.7836C38.7143 72.5042 38.5569 72.1251 38.5569 71.7299C38.5569 71.3347 38.7143 70.9557 38.9946 70.6762C39.2749 70.3967 39.655 70.2397 40.0513 70.2397H45.7219C46.1182 70.2397 46.4983 70.3967 46.7786 70.6762C47.0589 70.9557 47.2163 71.3347 47.2163 71.7299C47.2163 72.1251 47.0589 72.5042 46.7786 72.7836C46.4983 73.0631 46.1182 73.2201 45.7219 73.2201Z" fill="#D7D7D7"/>
<path d="M62.3548 73.2201H56.6433C56.247 73.2201 55.8669 73.0631 55.5866 72.7836C55.3064 72.5042 55.1489 72.1251 55.1489 71.7299C55.1489 71.3347 55.3064 70.9557 55.5866 70.6762C55.8669 70.3967 56.247 70.2397 56.6433 70.2397H62.3139C62.7102 70.2397 63.0904 70.3967 63.3706 70.6762C63.6509 70.9557 63.8083 71.3347 63.8083 71.7299C63.8083 72.1251 63.6509 72.5042 63.3706 72.7836C63.0904 73.0631 62.7102 73.2201 62.3139 73.2201H62.3548Z" fill="#D7D7D7"/>
<path d="M78.9878 73.2201H73.3173C72.9209 73.2201 72.5408 73.0631 72.2606 72.7836C71.9803 72.5042 71.8229 72.1251 71.8229 71.7299C71.8229 71.3347 71.9803 70.9557 72.2606 70.6762C72.5408 70.3967 72.9209 70.2397 73.3173 70.2397H78.9878C79.3842 70.2397 79.7643 70.3967 80.0445 70.6762C80.3248 70.9557 80.4822 71.3347 80.4822 71.7299C80.4822 72.1251 80.3248 72.5042 80.0445 72.7836C79.7643 73.0631 79.3842 73.2201 78.9878 73.2201V73.2201Z" fill="#D7D7D7"/>
<path d="M95.6208 73.2201H89.9503C89.5539 73.2201 89.1738 73.0631 88.8936 72.7836C88.6133 72.5042 88.4559 72.1251 88.4559 71.7299C88.4559 71.3347 88.6133 70.9557 88.8936 70.6762C89.1738 70.3967 89.5539 70.2397 89.9503 70.2397H95.6208C96.0172 70.2397 96.3973 70.3967 96.6775 70.6762C96.9578 70.9557 97.1152 71.3347 97.1152 71.7299C97.1152 72.1251 96.9578 72.5042 96.6775 72.7836C96.3973 73.0631 96.0172 73.2201 95.6208 73.2201V73.2201Z" fill="#D7D7D7"/>
</svg>
