<svg width="220" height="201" viewBox="0 0 220 201" fill="none" xmlns="http://www.w3.org/2000/svg">
<path d="M67.7426 92.755H151.559C152.088 92.7606 152.611 92.8737 153.094 93.0873C153.578 93.3009 154.014 93.6106 154.374 93.9976C154.735 94.3846 155.013 94.8408 155.192 95.3386C155.371 95.8363 155.446 96.3652 155.415 96.8931C153.365 125.196 129.912 125.196 109.651 125.196C89.3898 125.196 66.0542 123.625 63.8973 96.8931C63.8628 96.3644 63.9363 95.8342 64.1133 95.3348C64.2903 94.8354 64.5671 94.3773 64.9269 93.9883C65.2866 93.5993 65.7218 93.2877 66.2059 93.0723C66.6899 92.8569 67.2128 92.7423 67.7426 92.7355V92.755Z" fill="#DD0E0E"/>
<path d="M153.004 55.8631H66.3079C66.0192 55.8619 65.7351 55.7899 65.4806 55.6535C65.2261 55.5171 65.0089 55.3203 64.8481 55.0805C64.6872 54.8407 64.5876 54.5651 64.558 54.2778C64.5283 53.9906 64.5696 53.7005 64.6781 53.4329C68.3656 44.54 74.6066 36.9399 82.6122 31.5929C90.6178 26.2459 100.029 23.3921 109.656 23.3921C119.283 23.3921 128.694 26.2459 136.7 31.5929C144.705 36.9399 150.946 44.54 154.634 53.4329C154.742 53.7005 154.784 53.9906 154.754 54.2778C154.724 54.5651 154.625 54.8407 154.464 55.0805C154.303 55.3203 154.086 55.5171 153.831 55.6535C153.577 55.7899 153.293 55.8619 153.004 55.8631Z" fill="#DD0E0E"/>
<path d="M45.2072 138.206H11.6044C5.19545 138.206 0 143.402 0 149.811V183.413C0 189.822 5.19545 195.018 11.6044 195.018H45.2072C51.6162 195.018 56.8116 189.822 56.8116 183.413V149.811C56.8116 143.402 51.6162 138.206 45.2072 138.206Z" fill="#DD0E0E"/>
<path d="M79.1085 42.8884C78.8019 42.8849 78.5088 42.7618 78.2916 42.5453C78.177 42.4321 78.086 42.2973 78.0239 42.1487C77.9618 42 77.9298 41.8405 77.9298 41.6794C77.9298 41.5183 77.9618 41.3588 78.0239 41.2102C78.086 41.0616 78.177 40.9267 78.2916 40.8135C84.4647 34.3825 92.5401 30.1042 101.328 28.609C101.653 28.5538 101.987 28.6299 102.256 28.8206C102.524 29.0114 102.707 29.3011 102.762 29.6261C102.817 29.9511 102.741 30.2847 102.55 30.5536C102.359 30.8224 102.07 31.0045 101.745 31.0597C93.4505 32.4439 85.8225 36.4627 79.9907 42.5208C79.8753 42.6374 79.7378 42.7298 79.5864 42.7929C79.435 42.856 79.2725 42.8885 79.1085 42.8884Z" fill="#D7D7D7"/>
<path d="M76.9845 46.205C76.9845 46.4768 76.9038 46.7425 76.7527 46.9683C76.6015 47.1942 76.3867 47.3701 76.1354 47.4737C75.8842 47.5773 75.6078 47.604 75.3414 47.5504C75.0749 47.4968 74.8304 47.3653 74.6388 47.1725C74.4472 46.9798 74.3172 46.7345 74.2651 46.4677C74.2131 46.201 74.2414 45.9248 74.3466 45.6742C74.4517 45.4235 74.6289 45.2098 74.8556 45.0599C75.0824 44.9101 75.3485 44.831 75.6203 44.8326C75.8001 44.8326 75.9782 44.8682 76.1443 44.9373C76.3103 45.0063 76.4611 45.1075 76.5879 45.2351C76.7147 45.3626 76.815 45.514 76.883 45.6805C76.9511 45.8469 76.9856 46.0252 76.9845 46.205Z" fill="#D7D7D7"/>
<path d="M67.7426 94.7069C67.4782 94.7104 67.2174 94.7676 66.9758 94.875C66.7342 94.9824 66.5169 95.1377 66.3372 95.3315C66.16 95.5216 66.0242 95.7464 65.9385 95.9917C65.8528 96.237 65.8191 96.4974 65.8394 96.7565C67.7914 121.224 88.5699 123.274 109.651 123.274C130.244 123.274 151.55 123.274 153.463 96.7565C153.476 96.4961 153.437 96.2357 153.347 95.9908C153.258 95.7458 153.121 95.5211 152.944 95.3301C152.766 95.1391 152.552 94.9855 152.315 94.8785C152.077 94.7714 151.82 94.7131 151.559 94.7069H67.7426ZM109.651 127.178C92.7178 127.178 64.3852 127.178 61.9551 97.0688C61.8902 96.2719 61.9911 95.4703 62.2515 94.7144C62.5118 93.9585 62.926 93.2648 63.4678 92.6769C64.0138 92.0882 64.6751 91.618 65.4104 91.2956C66.1458 90.9733 66.9397 90.8056 67.7426 90.803H151.559C152.357 90.8093 153.144 90.9783 153.874 91.2996C154.603 91.6209 155.26 92.0879 155.802 92.6717C156.345 93.2556 156.763 93.9442 157.03 94.6952C157.298 95.4463 157.409 96.244 157.357 97.0395C155.18 127.178 129.932 127.178 109.651 127.178Z" fill="#D7D7D7"/>
<path d="M66.5909 53.9111H152.721C149.148 45.4412 143.157 38.2128 135.497 33.1304C127.837 28.048 118.849 25.3373 109.656 25.3373C100.463 25.3373 91.4746 28.048 83.8147 33.1304C76.1548 38.2128 70.1637 45.4412 66.5909 53.9111ZM153.004 57.815H66.3079C65.6977 57.8162 65.0967 57.6669 64.5581 57.3802C64.0195 57.0936 63.5599 56.6784 63.2201 56.1717C62.8803 55.6649 62.6708 55.0821 62.6102 54.475C62.5495 53.8678 62.6396 53.2551 62.8724 52.6912C66.707 43.4403 73.1981 35.534 81.5253 29.9715C89.8524 24.409 99.6418 21.4402 109.656 21.4402C119.67 21.4402 129.459 24.409 137.786 29.9715C146.114 35.534 152.605 43.4403 156.439 52.6912C156.669 53.2558 156.757 53.8683 156.695 54.4748C156.633 55.0813 156.424 55.6634 156.085 56.1701C155.745 56.6768 155.287 57.0926 154.75 57.381C154.213 57.6695 153.614 57.8219 153.004 57.8248V57.815Z" fill="#D7D7D7"/>
<path d="M98.3004 37.6416C97.9152 37.9603 97.4263 38.1264 96.9266 38.1084C96.427 38.0904 95.9513 37.8895 95.5901 37.5439C95.2288 37.1982 95.007 36.732 94.9669 36.2336C94.9268 35.7352 95.0711 35.2395 95.3725 34.8405C96.1435 34.0207 99.5789 31.7174 100.399 32.4982C101.219 33.279 99.1104 36.8218 98.3297 37.6416H98.3004Z" fill="#D7D7D7"/>
<path d="M78.0684 49.7535C77.8486 49.9066 77.6008 50.015 77.3391 50.0724C77.0774 50.1298 76.807 50.1351 76.5433 50.0879C76.2795 50.0408 76.0277 49.9422 75.8021 49.7977C75.5764 49.6533 75.3815 49.4658 75.2283 49.246C75.0752 49.0262 74.9668 48.7783 74.9094 48.5167C74.852 48.255 74.8467 47.9845 74.8939 47.7208C74.941 47.4571 75.0396 47.2052 75.1841 46.9796C75.3285 46.754 75.516 46.559 75.7358 46.4059C76.7118 45.7617 80.4888 44.2099 81.133 45.1371C81.7771 46.0643 78.9956 49.1093 78.0684 49.7535Z" fill="#D7D7D7"/>
<path d="M107.533 47.3818C107.463 47.9189 107.183 48.4062 106.754 48.7366C106.324 49.067 105.782 49.2133 105.244 49.1434C104.707 49.0736 104.22 48.7932 103.89 48.3639C103.559 47.9347 103.413 47.3919 103.483 46.8548C103.629 45.7324 105.064 41.8578 106.176 41.9749C107.289 42.092 107.679 46.2399 107.533 47.3525V47.3818Z" fill="#D7D7D7"/>
<path d="M124.095 33.7865C124.393 34.1905 124.531 34.6898 124.483 35.1891C124.436 35.6884 124.206 36.1527 123.837 36.4932C123.469 36.8337 122.988 37.0266 122.487 37.035C121.985 37.0434 121.498 36.8667 121.119 36.5387C120.348 35.7189 118.249 32.1664 119.069 31.3856C119.889 30.6048 123.315 32.9276 124.095 33.7474V33.7865Z" fill="#D7D7D7"/>
<path d="M130.049 47.8015C130.248 47.9816 130.409 48.199 130.523 48.4414C130.638 48.6838 130.704 48.9464 130.717 49.2142C130.73 49.482 130.69 49.7498 130.6 50.0022C130.51 50.2547 130.371 50.4868 130.19 50.6855C130.01 50.8842 129.793 51.0454 129.551 51.16C129.308 51.2747 129.046 51.3404 128.778 51.3536C128.51 51.3667 128.242 51.327 127.99 51.2366C127.737 51.1463 127.505 51.0071 127.306 50.827C126.477 50.0755 124.096 46.6889 124.847 45.8593C125.599 45.0297 129.21 47.0402 130.049 47.8113V47.8015Z" fill="#D7D7D7"/>
<path d="M140.59 39.9839C140.891 40.4209 141.01 40.9581 140.921 41.4815C140.833 42.0048 140.544 42.4731 140.116 42.7869C139.688 43.1007 139.154 43.2352 138.629 43.1619C138.103 43.0887 137.626 42.8134 137.3 42.3946C136.627 41.4869 134.987 37.7001 135.895 37.0364C136.803 36.3728 139.926 39.0762 140.59 39.9644V39.9839Z" fill="#D7D7D7"/>
<path d="M142.297 89.544C137.418 89.544 134.968 87.1821 132.782 85.1033C130.83 83.2197 129.268 81.7362 125.95 81.7362C122.631 81.7362 121.07 83.2197 119.118 85.1033C116.942 87.1821 114.472 89.544 109.612 89.544C104.752 89.544 102.273 87.1821 100.096 85.1033C98.1442 83.2197 96.5827 81.7362 93.2644 81.7362C89.946 81.7362 88.3845 83.2197 86.4325 85.1033C84.2561 87.1821 81.7869 89.544 76.9265 89.544C72.0661 89.544 69.5969 87.1821 67.4205 85.1033C65.7028 83.4539 64.2095 82.0387 61.5646 81.785C61.0469 81.7358 60.57 81.483 60.2387 81.0821C59.9074 80.6813 59.7489 80.1653 59.7981 79.6476C59.8473 79.1299 60.1001 78.6529 60.5009 78.3217C60.9018 77.9904 61.4178 77.8319 61.9355 77.8811C65.9663 78.2715 68.1915 80.3893 70.1532 82.273C72.1149 84.1566 73.6667 85.6303 76.9851 85.6303C80.3034 85.6303 81.8649 84.1468 83.8169 82.273C85.9933 80.1844 88.4625 77.8225 93.3229 77.8225C98.1833 77.8225 100.652 80.1844 102.839 82.273C104.791 84.1468 106.352 85.6303 109.671 85.6303C112.989 85.6303 114.55 84.1468 116.502 82.273C118.679 80.1844 121.148 77.8225 126.008 77.8225C130.869 77.8225 133.348 80.1844 135.524 82.273C137.476 84.1468 139.038 85.6303 142.356 85.6303C145.674 85.6303 147.236 84.1468 149.188 82.273C151.14 80.3991 153.375 78.2715 157.415 77.8811C157.933 77.8319 158.449 77.9904 158.85 78.3217C159.251 78.6529 159.504 79.1299 159.553 79.6476C159.602 80.1653 159.443 80.6813 159.112 81.0821C158.781 81.483 158.304 81.7358 157.786 81.785C155.092 82.0387 153.609 83.4539 151.93 85.1033C149.744 87.1821 147.275 89.544 142.415 89.544H142.297Z" fill="#D7D7D7"/>
<path d="M110.568 27.55H110.393C109.878 27.5029 109.403 27.2535 109.071 26.8564C108.74 26.4593 108.58 25.9471 108.626 25.4321L110.783 1.78417C110.83 1.26648 111.08 0.788504 111.479 0.455388C111.878 0.122271 112.393 -0.0386972 112.911 0.00789488C113.428 0.054487 113.906 0.304823 114.24 0.703831C114.573 1.10284 114.734 1.61783 114.687 2.13552L112.511 25.803C112.467 26.2896 112.242 26.7421 111.88 27.071C111.519 27.3999 111.047 27.5812 110.559 27.5792L110.568 27.55Z" fill="#D7D7D7"/>
<path d="M113.682 15.5064C116.297 16.4824 119.167 16.0335 122.183 15.5064C125.198 14.9794 128.37 14.4621 131.601 15.36L132.274 5.92233C129.659 4.94636 126.789 5.39531 123.783 5.92233C120.777 6.44936 117.586 6.95687 114.355 6.05897L113.682 15.4967V15.5064ZM133.319 20.1814C132.975 20.1836 132.638 20.0925 132.343 19.9178C129.415 18.2587 126.204 18.8052 122.778 19.3811C119.001 20.0154 114.726 20.7377 110.627 18.4051C110.31 18.2229 110.05 17.9552 109.877 17.6325C109.705 17.3098 109.626 16.9451 109.651 16.58L110.627 3.12128C110.651 2.79268 110.757 2.47536 110.936 2.19891C111.115 1.92245 111.361 1.69585 111.652 1.5402C111.942 1.37955 112.267 1.29526 112.599 1.29526C112.93 1.29526 113.256 1.37955 113.545 1.5402C116.473 3.19936 119.674 2.65281 123.1 2.07699C126.877 1.4426 131.152 0.73014 135.251 3.05296C135.57 3.23584 135.831 3.50508 136.003 3.82969C136.176 4.15431 136.254 4.52109 136.227 4.8878L135.251 18.3368C135.239 18.6638 135.146 18.9828 134.979 19.2642C134.811 19.5456 134.576 19.7804 134.295 19.9471C134.013 20.0993 133.697 20.1798 133.377 20.1814H133.319Z" fill="#D7D7D7"/>
<path d="M154.79 64.1979H63.8874C63.3697 64.1979 62.8733 63.9922 62.5072 63.6262C62.1411 63.2601 61.9355 62.7636 61.9355 62.2459C61.9355 61.7282 62.1411 61.2318 62.5072 60.8657C62.8733 60.4996 63.3697 60.294 63.8874 60.294H154.79C155.308 60.294 155.804 60.4996 156.17 60.8657C156.536 61.2318 156.742 61.7282 156.742 62.2459C156.742 62.7636 156.536 63.2601 156.17 63.6262C155.804 63.9922 155.308 64.1979 154.79 64.1979Z" fill="#D7D7D7"/>
<path d="M154.79 76.1536H63.8874C63.3697 76.1536 62.8733 75.9479 62.5072 75.5819C62.1411 75.2158 61.9355 74.7193 61.9355 74.2016C61.9355 73.6839 62.1411 73.1874 62.5072 72.8214C62.8733 72.4553 63.3697 72.2497 63.8874 72.2497H154.79C155.308 72.2497 155.804 72.4553 156.17 72.8214C156.536 73.1874 156.742 73.6839 156.742 74.2016C156.742 74.7193 156.536 75.2158 156.17 75.5819C155.804 75.9479 155.308 76.1536 154.79 76.1536Z" fill="#D7D7D7"/>
<path d="M71.6661 70.0147H66.2592C65.8812 70.0147 65.5188 69.8646 65.2516 69.5974C64.9844 69.3302 64.8342 68.9677 64.8342 68.5898C64.8342 68.2119 64.9844 67.8495 65.2516 67.5822C65.5188 67.315 65.8812 67.1649 66.2592 67.1649H71.6661C72.044 67.1649 72.4064 67.315 72.6736 67.5822C72.9409 67.8495 73.091 68.2119 73.091 68.5898C73.091 68.9677 72.9409 69.3302 72.6736 69.5974C72.4064 69.8646 72.044 70.0147 71.6661 70.0147Z" fill="#D7D7D7"/>
<path d="M87.5257 70.0147H82.1188C81.7409 70.0147 81.3784 69.8646 81.1112 69.5974C80.844 69.3302 80.6938 68.9677 80.6938 68.5898C80.6938 68.2119 80.844 67.8495 81.1112 67.5822C81.3784 67.315 81.7409 67.1649 82.1188 67.1649H87.5257C87.9036 67.1649 88.266 67.315 88.5333 67.5822C88.8005 67.8495 88.9506 68.2119 88.9506 68.5898C88.9506 68.9677 88.8005 69.3302 88.5333 69.5974C88.266 69.8646 87.9036 70.0147 87.5257 70.0147Z" fill="#D7D7D7"/>
<path d="M103.385 70.0147H97.9784C97.6005 70.0147 97.238 69.8646 96.9708 69.5974C96.7036 69.3302 96.5535 68.9677 96.5535 68.5898C96.5535 68.2119 96.7036 67.8495 96.9708 67.5822C97.238 67.315 97.6005 67.1649 97.9784 67.1649H103.385C103.763 67.1649 104.126 67.315 104.393 67.5822C104.66 67.8495 104.81 68.2119 104.81 68.5898C104.81 68.9677 104.66 69.3302 104.393 69.5974C104.126 69.8646 103.763 70.0147 103.385 70.0147Z" fill="#D7D7D7"/>
<path d="M119.245 70.0147H113.799C113.421 70.0147 113.059 69.8646 112.791 69.5974C112.524 69.3302 112.374 68.9677 112.374 68.5898C112.374 68.2119 112.524 67.8495 112.791 67.5822C113.059 67.315 113.421 67.1649 113.799 67.1649H119.206C119.584 67.1649 119.946 67.315 120.213 67.5822C120.481 67.8495 120.631 68.2119 120.631 68.5898C120.631 68.9677 120.481 69.3302 120.213 69.5974C119.946 69.8646 119.584 70.0147 119.206 70.0147H119.245Z" fill="#D7D7D7"/>
<path d="M135.105 70.0147H129.698C129.32 70.0147 128.957 69.8646 128.69 69.5974C128.423 69.3302 128.273 68.9677 128.273 68.5898C128.273 68.2119 128.423 67.8495 128.69 67.5822C128.957 67.315 129.32 67.1649 129.698 67.1649H135.105C135.482 67.1649 135.845 67.315 136.112 67.5822C136.379 67.8495 136.529 68.2119 136.529 68.5898C136.529 68.9677 136.379 69.3302 136.112 69.5974C135.845 69.8646 135.482 70.0147 135.105 70.0147Z" fill="#D7D7D7"/>
<path d="M150.964 70.0147H145.557C145.179 70.0147 144.817 69.8646 144.55 69.5974C144.282 69.3302 144.132 68.9677 144.132 68.5898C144.132 68.2119 144.282 67.8495 144.55 67.5822C144.817 67.315 145.179 67.1649 145.557 67.1649H150.964C151.342 67.1649 151.705 67.315 151.972 67.5822C152.239 67.8495 152.389 68.2119 152.389 68.5898C152.389 68.9677 152.239 69.3302 151.972 69.5974C151.705 69.8646 151.342 70.0147 150.964 70.0147Z" fill="#D7D7D7"/>
<path d="M93.9085 173.546C93.8474 176.056 93.1452 178.509 91.8687 180.671C90.3213 183.462 87.8808 185.651 84.9393 186.888C82.0292 188.017 78.9442 188.628 75.8236 188.694L66.3274 188.791L76.4873 188.879C82.5969 188.879 87.5191 186.839 91.2538 182.76C87.8704 187.067 82.5676 189.217 75.3454 189.211C68.1232 189.204 64.3885 189.175 64.1412 189.123C63.6044 188.615 63.0676 188.088 62.5308 187.552C61.9729 187.098 61.6012 186.456 61.4865 185.746C61.3597 183.531 61.3401 180.593 61.4377 176.962C61.5288 171.64 61.5744 168.683 61.5744 168.091C61.5744 166.822 61.5744 164.919 61.4085 162.391C61.2426 159.863 61.2426 157.96 61.2426 156.691C61.2426 155.013 61.2426 153.285 61.3401 151.519L61.7208 151.567C62.2868 152.869 62.6122 156.997 62.6968 163.953C62.8398 163.694 62.9042 163.398 62.8822 163.103C62.8822 162.947 62.7586 157.026 62.5113 145.341C62.6917 145.718 62.8166 146.119 62.8822 146.531C62.8822 147.8 62.9635 149.716 63.1262 152.28C63.5656 154.76 63.8653 157.262 64.0241 159.775C64.0241 160.185 64.0241 160.751 63.9363 161.581C63.8484 162.41 63.8386 162.977 63.8386 163.386C64.2778 163.103 64.5023 162.859 64.5023 162.674L64.4535 156.877C64.9681 158.504 65.2089 160.206 65.166 161.913L65.0001 167.612L65.6637 183.609V177.577C65.6637 177.04 65.6052 176.24 65.4881 175.157C65.3709 174.073 65.3221 173.273 65.3221 172.736V171.126L65.7028 171.36V171.028C65.7028 170.462 65.7028 169.672 65.6344 168.676C65.5661 167.681 65.5661 166.929 65.5661 166.422C65.5632 165.645 65.6088 164.87 65.7028 164.099L65.9468 163.904C66.6185 166.35 66.9695 168.873 66.9911 171.409C66.9911 173.907 66.9911 176.409 66.9911 178.914C66.9911 179.451 66.9911 180.232 66.8935 181.266C66.7959 182.301 66.7959 183.062 66.7959 183.56L76.1555 184.038C79.4901 184.353 82.8303 183.497 85.6029 181.618C86.9636 180.672 88.0611 179.395 88.7919 177.908C89.5227 176.421 89.8628 174.772 89.7801 173.117C89.8635 171.271 89.3276 169.451 88.2576 167.944C87.1288 166.519 85.6813 165.38 84.0316 164.616C84.0316 164.46 84.0316 164.099 83.934 163.523C83.8813 163.161 83.8519 162.796 83.8462 162.43V162.098L86.8815 159.17C87.705 157.939 88.1058 156.472 88.0233 154.993C88.0538 153.453 87.695 151.929 86.9802 150.565C86.2653 149.2 85.2176 148.037 83.934 147.185C81.4162 145.392 78.3873 144.457 75.2966 144.521C74.1189 144.438 72.9462 144.294 71.7831 144.091H73.1592C75.9814 144.037 78.7916 144.473 81.4648 145.38C83.4209 146.091 85.1018 147.403 86.2666 149.127C87.4968 150.832 88.1592 152.881 88.16 154.983C88.1374 156.835 87.5964 158.644 86.5984 160.205V160.293C87.8542 159.473 88.4853 157.703 88.4918 154.983C88.5376 152.603 87.7114 150.287 86.169 148.474C84.5938 146.678 82.533 145.377 80.2351 144.726C78.0146 144.269 75.7574 144.014 73.4911 143.965C70.0751 143.737 68.1915 143.516 67.8402 143.301L68.4062 143.252L63.9948 142.92C64.3462 142.54 65.898 142.344 68.6502 142.344C69.7921 142.344 71.1975 142.344 72.8762 142.491L75.6772 142.588L66.8935 142.208L66.7471 142.013C67.0903 141.85 67.4612 141.754 67.8402 141.73H75.0526C79.1217 141.55 83.1362 142.72 86.4715 145.058C88.0754 146.217 89.3662 147.757 90.2282 149.539C91.0901 151.321 91.4962 153.289 91.41 155.266C91.3995 157.303 90.9115 159.309 89.9851 161.122C89.8821 161.069 89.7689 161.039 89.6532 161.034C89.3702 161.034 89.0579 161.249 88.6772 161.698C88.2966 162.147 87.9843 162.576 87.916 162.674C89.6505 163.964 91.172 165.519 92.425 167.281C93.4749 169.197 93.9874 171.362 93.9085 173.546ZM63.8094 150.465C63.7545 150.795 63.6762 151.121 63.5751 151.441L62.9993 143.935C63.6032 146.057 63.8764 148.259 63.8094 150.465ZM64.2876 157.209C64.19 156.867 64.0436 156.34 63.8582 155.647L64.0436 155.169C64.1998 155.832 64.2876 156.145 64.2876 156.213V157.209ZM65.6637 185.512V185.414C65.6809 185.294 65.6623 185.172 65.6102 185.063C65.5581 184.953 65.4749 184.862 65.3709 184.799V185.512H65.6637ZM66.2786 185.512L65.898 185.365L65.7516 185.512H66.2786ZM79.1029 185.317H78.7613C78.3528 185.358 77.9421 185.374 77.5316 185.365C77.1217 185.365 74.2426 185.193 68.8942 184.848C68.6697 184.848 68.3477 184.848 67.9182 184.848L67.0691 184.897L66.952 184.887V185.404L74.7598 185.648L79.1029 185.317ZM85.2711 172.551C85.2711 175.654 84.0056 177.665 81.4745 178.582C80.8063 178.853 80.1031 179.027 79.386 179.1L77.6878 179.031C80.2741 178.778 82.0699 178.309 83.0459 177.606C84.3146 176.689 84.9978 175.049 84.9978 172.668C84.9973 172.266 84.9314 171.868 84.8026 171.487C84.5879 174.012 84.1617 175.736 83.5241 176.66C82.675 177.987 81.0354 178.612 78.6442 178.612C77.5023 178.612 76.8094 178.456 76.5556 178.143C76.1693 178.073 75.7879 177.979 75.4137 177.86L74.1352 178.426L74.2328 178.904C73.9622 178.652 73.6224 178.485 73.2568 178.426V178.143L72.9738 177.86L72.4468 178.192L72.642 178.953L72.4077 178.709L72.3101 178.856L72.0271 178.524V178.143L72.3101 178.192V178.055C72.3064 177.831 72.2736 177.608 72.2125 177.392L72.0271 177.441V176.914C72.0805 176.914 72.1334 176.903 72.1824 176.881C72.2313 176.86 72.2751 176.828 72.311 176.789C72.3469 176.749 72.3741 176.702 72.3908 176.652C72.4074 176.601 72.4132 176.547 72.4077 176.494C72.3997 176.419 72.3651 176.35 72.3101 176.299C71.9002 176.299 71.6953 176.494 71.6953 176.865C71.7051 177.066 71.7345 177.265 71.7831 177.46C71.83 177.623 71.8626 177.789 71.8807 177.958C71.9036 178.067 71.9036 178.18 71.8807 178.29C71.5564 178.057 71.3358 177.707 71.2658 177.314C71.1957 176.891 71.1793 176.462 71.217 176.035C71.2854 175.274 71.3146 174.874 71.3146 174.844C71.2837 174.135 71.189 173.429 71.0316 172.736C70.8709 172.057 70.7728 171.364 70.7388 170.667C70.7388 168.227 71.5163 167.007 73.0714 167.007H74.4963H75.9212C75.6382 167.007 75.0917 166.88 74.3011 166.715C73.7872 166.606 73.2646 166.544 72.7396 166.529C72.2693 166.553 71.8258 166.755 71.5001 167.095C71.217 167.447 70.9145 167.798 70.6022 168.139V170.853C70.6377 171.34 70.7161 171.823 70.8364 172.297C70.9762 172.798 71.0257 173.321 70.9828 173.839H70.5534C70.5702 174.351 70.6322 174.861 70.7388 175.362C70.701 175.648 70.6047 175.924 70.4558 176.172C69.6652 175.947 69.2748 174.552 69.2748 171.985C69.2863 171.658 69.3156 171.332 69.3627 171.009C69.4165 170.686 69.4491 170.36 69.4603 170.033C69.4388 169.735 69.3831 169.44 69.2944 169.154C69.2086 168.885 69.153 168.607 69.1284 168.325C69.1284 167.593 70.1044 166.539 72.1637 165.143C72.3589 165.215 74.197 165.501 77.678 166.002C79.535 166.196 81.3306 166.778 82.9483 167.71C83.7125 168.255 84.3262 168.985 84.7324 169.832C85.1385 170.678 85.3238 171.614 85.2711 172.551ZM82.8995 155.12C82.8995 158.956 80.9475 160.868 77.151 160.868C76.5839 160.846 76.0239 160.734 75.4918 160.537C77.0398 160.607 78.5901 160.462 80.0984 160.107C80.8428 159.903 81.486 159.432 81.9054 158.784C82.3248 158.136 82.491 157.356 82.3724 156.594V155.745C82.2222 157.059 81.6778 158.298 80.8109 159.297C79.7838 160.092 78.4925 160.465 77.1998 160.341C76.7716 160.329 76.3446 160.29 75.9212 160.224L74.633 160.058C74.3633 159.753 74.0303 159.51 73.657 159.346C73.4681 159.449 73.2941 159.577 73.1397 159.727C73.2717 159.936 73.3829 160.159 73.4715 160.39C73.4032 160.302 73.2666 160.058 73.0421 159.678L72.5151 159.922C72.7077 160.046 72.8576 160.227 72.9445 160.439L72.7103 160.205V160.439L72.1442 159.922V159.629L72.8079 159.395C72.7103 159.239 72.5834 159.014 72.4272 158.731V159.209L72.1442 158.916V158.633H72.5248C72.4243 158.498 72.3727 158.333 72.3784 158.165C72.4167 157.858 72.4787 157.555 72.5639 157.257L71.949 157.306C71.8864 157.406 71.8526 157.52 71.8514 157.638C71.8643 157.823 71.897 158.006 71.949 158.185C72.0024 158.346 72.0352 158.513 72.0466 158.682H71.8319C71.422 158.682 71.1975 158.37 71.1682 157.638C71.2366 158.809 71.2658 158.321 71.2658 156.164C71.2328 155.58 71.1379 155.001 70.9828 154.437C70.8245 153.886 70.7263 153.32 70.69 152.748C70.7412 152.257 70.9232 151.789 71.217 151.392C71.5684 150.845 71.8807 150.562 72.193 150.562C72.5695 150.574 72.9445 150.613 73.3154 150.679C73.6821 150.752 74.0542 150.795 74.428 150.806C75.0192 150.809 75.6087 150.744 76.1848 150.611C74.0278 150.299 72.886 150.133 72.7688 150.133C72.2331 150.19 71.735 150.435 71.3634 150.826C71.1494 150.977 70.9694 151.172 70.835 151.397C70.7005 151.622 70.6146 151.873 70.5827 152.133C70.5283 153.099 70.6575 154.066 70.9633 154.983V155.218L70.5338 155.266C70.541 155.482 70.5638 155.698 70.6022 155.91C70.6427 156.136 70.6656 156.365 70.6705 156.594V156.974L70.3777 157.072C69.6555 156.496 69.2944 155.442 69.2944 153.89C69.2944 152.338 70.2703 150.767 72.2808 148.903L73.1397 148.669C73.9839 148.966 74.8575 149.172 75.7456 149.284C77.1412 149.469 78.0293 149.615 78.41 149.713C79.6692 149.991 80.8014 150.677 81.6307 151.665C82.4677 152.619 82.92 153.851 82.8995 155.12ZM73.4032 177.206V176.103H73.1104V176.289C73.1104 176.445 72.9836 176.611 72.7396 176.767C72.4956 176.923 72.3589 177.079 72.3589 177.245C72.6993 177.151 73.0568 177.138 73.4032 177.206ZM73.7839 177.489V177.245L72.642 177.392L72.8274 177.724C73.1528 177.675 73.4729 177.597 73.7839 177.489ZM73.9205 158.829C73.7495 158.253 73.6223 157.666 73.5399 157.072L73.4032 157.687C73.4867 157.797 73.5344 157.93 73.5399 158.067C73.5399 158.38 73.3349 158.526 72.925 158.497L73.3544 158.682C73.1885 158.883 73.0126 159.075 72.8274 159.258L73.0714 159.346C73.383 159.226 73.6706 159.05 73.9205 158.829ZM81.7283 173.263C81.7613 172.92 81.7141 172.574 81.5905 172.252C81.4668 171.93 81.2701 171.642 81.0158 171.409C80.4498 171.028 79.8935 170.648 79.3567 170.267C78.2226 170.139 77.082 170.077 75.9408 170.082C75.8099 170.086 75.6801 170.057 75.5627 170C75.4453 169.942 75.3439 169.856 75.2673 169.75C75.093 169.542 74.9363 169.32 74.7989 169.086V170.316C76.0537 170.31 77.307 170.404 78.5466 170.599L78.6442 170.794L74.7403 170.55V176.103H73.7643C73.7939 176.451 73.7939 176.8 73.7643 177.148H74.2328C74.3912 177.123 74.5509 177.107 74.711 177.099C74.7497 177.092 74.7895 177.095 74.827 177.106C74.8645 177.118 74.8986 177.139 74.9264 177.167C74.9542 177.194 74.9748 177.228 74.9866 177.266C74.9984 177.303 75.001 177.343 74.9941 177.382C74.8379 177.636 74.4866 177.733 73.9498 177.665V177.997H74.1938C74.7508 178.002 75.29 177.801 75.7065 177.431C76.8191 177.431 77.8732 177.431 78.8882 177.284H78.4588C77.7305 177.318 77.0007 177.272 76.2823 177.148L76.136 176.904C76.8454 176.595 77.6002 176.404 78.3709 176.338C79.1811 176.27 79.9702 176.045 80.6938 175.674C81.0612 175.398 81.3487 175.029 81.5271 174.606C81.7054 174.182 81.7681 173.719 81.7088 173.263H81.7283ZM74.1157 168.296C74.0153 168.427 73.9332 168.572 73.8717 168.725L74.0181 168.676L74.1157 168.296ZM79.1908 155.852C78.985 155.163 78.6542 154.518 78.2148 153.949C77.797 153.876 77.3832 153.782 76.9753 153.666H74.6525V153.998C75.6732 153.94 76.6968 154.039 77.6878 154.29L77.8342 154.427L77.5511 154.476C77.1449 154.301 76.7044 154.221 76.2628 154.242C76.0116 154.244 75.7607 154.26 75.5113 154.29H74.7598V156.184C74.7598 155.93 74.8574 156.545 75.0429 158.038H76.8484C77.5616 157.834 78.2595 157.579 78.937 157.277C79.1106 156.832 79.1968 156.358 79.1908 155.881V155.852ZM78.8589 167.671H76.2921C76.6142 167.671 77.2681 167.73 78.3905 167.856L78.8589 167.671ZM78.6637 151.704C78.2167 151.481 77.7348 151.335 77.2388 151.275H76.4287C76.8002 151.291 77.1678 151.356 77.5218 151.47C78.0619 151.567 78.4425 151.645 78.6637 151.704ZM79.6397 153.939C79.5812 153.685 79.2591 153.402 78.6637 153.08H78.2343C78.6946 153.325 79.141 153.596 79.5714 153.89L79.6397 153.939ZM81.0158 170.082C80.6212 169.715 80.1517 169.439 79.6397 169.272H78.6637C79.181 169.428 79.9325 169.682 80.9475 170.033L81.0158 170.082ZM81.4941 155.979V155.608C81.4791 155.232 81.44 154.857 81.3769 154.486C81.2956 154.185 81.1564 153.903 80.967 153.656C81.2523 154.381 81.4075 155.151 81.4258 155.93L81.4941 155.979ZM87.5744 166.139C85.8957 164.968 84.8514 164.382 84.4415 164.382H84.3439L87.5744 166.139ZM85.8176 163.904L85.2418 163.718V164.001L85.5737 164.099L85.8176 163.904ZM91.127 169.984C90.8277 168.707 90.2403 167.516 89.4097 166.501C88.5791 165.486 87.5274 164.674 86.3349 164.128L85.9055 164.411C87.1405 164.935 88.2512 165.713 89.1652 166.695C90.0539 167.602 90.7044 168.716 91.0586 169.935L91.127 169.984ZM88.6187 161.298H86.2373C86.7448 161.679 87.2133 162.04 87.7598 162.391C88.0707 162.045 88.3363 161.662 88.5504 161.249L88.6187 161.298ZM92.9813 173.742C92.386 177.597 91.2538 180.525 89.6142 182.525C90.7653 181.389 91.6141 179.984 92.0834 178.436C92.6298 176.914 92.9104 175.31 92.913 173.693L92.9813 173.742ZM91.654 174.542V172.2C91.5572 174.219 91.2564 176.223 90.7561 178.182C91.1321 176.977 91.4096 175.743 91.5857 174.493L91.654 174.542Z" fill="#D7D7D7"/>
<path d="M121.978 187.22L120.309 188.879H114.189L113.145 187.815C111.779 189.084 109.758 189.718 107.065 189.718C103.018 189.718 99.8359 188.453 97.5196 185.922C95.3074 183.482 94.2013 180.251 94.2013 176.23V167.974C94.2013 164.493 94.2013 161.753 94.2013 159.756L94.3477 159.326C93.9963 159.58 93.8076 161.464 93.7816 164.977V159.609L95.0797 158.331C95.4254 157.943 95.9084 157.705 96.4265 157.667C96.8657 157.667 97.5782 157.667 98.5541 157.599C99.5301 157.531 100.272 157.521 100.77 157.521C101.468 157.473 102.161 157.677 102.722 158.097L104.234 159.609C104.234 160.537 104.234 161.737 104.234 163.221V174.444C104.234 177.925 105.454 179.669 107.894 179.675C110.324 179.675 111.535 178.085 111.496 174.922L111.359 162.674C111.304 162.106 111.402 161.533 111.642 161.015C111.904 161.813 112.049 162.645 112.071 163.484C112.13 164.362 112.198 165.251 112.257 166.139C112.325 165.729 112.403 164.665 112.501 162.957C112.589 161.054 112.618 160.029 112.589 159.775C112.842 159.424 113.223 158.956 113.731 158.35H118.903C118.478 158.521 118.032 158.633 117.576 158.682C117.225 158.682 116.766 158.682 116.2 158.682H114.824C113.936 158.682 113.369 158.916 113.116 159.395V159.541L113.535 159.063C117.244 158.809 119.463 158.715 120.192 158.78C119.014 158.976 117.823 159.071 116.629 159.063C115.623 159.037 114.617 159.132 113.633 159.346L113.252 159.727C113.252 160.049 113.174 160.517 113.116 161.151C113.116 160.898 113.018 160.507 112.921 159.971C112.769 160.231 112.673 160.52 112.637 160.82C112.682 162.07 112.816 163.316 113.038 164.548C113.266 165.779 113.403 167.025 113.448 168.276C113.448 168.813 113.448 169.73 113.399 171.028C113.35 172.326 113.321 173.117 113.399 173.781V174.151L113.877 173.585V167.037L114.345 173.156C114.345 179.363 112.097 182.467 107.601 182.467C106.649 182.515 105.7 182.317 104.846 181.893C103.991 181.47 103.26 180.834 102.722 180.046C101.687 178.402 101.205 176.47 101.345 174.532L101.628 161.62H100.496C100.325 162.139 100.243 162.684 100.252 163.23C100.299 164.675 100.459 166.114 100.731 167.534C100.997 168.952 101.157 170.387 101.209 171.829C101.094 174.231 101.364 176.636 102.009 178.953C102.365 180.085 103.095 181.062 104.079 181.725C105.063 182.388 106.243 182.698 107.426 182.603C107.967 182.569 108.505 182.498 109.036 182.389C109.866 182.252 110.324 182.174 110.412 182.174L110.324 182.418H110.412C110.832 182.418 111.388 182.037 112.218 181.276C112.809 180.788 113.28 180.17 113.594 179.471C113.913 178.521 114.342 176.969 114.882 174.815C115.02 175.213 115.083 175.634 115.068 176.055C115.179 178.106 114.478 180.119 113.116 181.657C112.396 182.371 111.534 182.926 110.585 183.286C109.637 183.645 108.624 183.802 107.611 183.745C104.342 183.745 102.195 182.301 101.15 179.422C100.571 177.815 100.285 175.014 100.291 171.019C100.291 170.413 100.291 169.486 100.291 168.218C100.291 166.949 100.291 166.002 100.291 165.368C100.251 164.7 100.113 164.043 99.8815 163.416C99.6958 162.755 99.4164 162.124 99.0519 161.542C98.7396 161.542 98.2613 161.542 97.627 161.444L97.3927 175.596C97.3066 177.352 97.4809 179.112 97.91 180.817C98.5655 182.758 99.9232 184.384 101.716 185.375C103.437 186.455 105.424 187.033 107.455 187.044C108.679 187.116 109.901 186.888 111.017 186.38C111.963 185.638 112.823 184.793 113.584 183.862L115.195 184.282C115.175 184.379 115.176 184.479 115.196 184.576C115.217 184.673 115.258 184.765 115.315 184.845C115.373 184.926 115.447 184.994 115.532 185.044C115.617 185.095 115.711 185.128 115.809 185.141C115.784 185.338 115.715 185.528 115.609 185.696C115.503 185.865 115.362 186.008 115.195 186.117V186.41C116.717 186.527 118.122 186.595 119.469 186.595L120.231 168.052L119.899 186.595H120.035C120.251 185.839 120.366 185.058 120.377 184.272C120.465 182.906 120.514 182.037 120.514 181.657L120.611 166.412C120.611 165.846 120.709 164.987 120.797 163.855H120.894C121.086 162.789 121.164 161.706 121.128 160.624C121.111 160.299 121.111 159.974 121.128 159.648C121.456 160.676 121.601 161.753 121.558 162.83C121.558 164.06 121.558 165.758 121.558 167.808C121.558 170.345 121.509 171.565 121.509 171.468L121.753 162.869L121.939 162.781C122.012 163.03 122.062 163.285 122.085 163.543L121.978 187.22ZM95.431 180.525C95.0998 177.165 94.9402 173.79 94.9528 170.413V176.962C95.0111 178.161 95.1711 179.353 95.431 180.525ZM96.1923 179.675L95.958 174.308V177.236L96.1923 179.675ZM104.039 159.775C103.495 158.942 102.767 158.244 101.912 157.736H99.2471L98.398 157.921C101.326 158.331 103.122 158.956 103.854 159.775C103.922 161.991 103.932 164.743 103.854 168.042L104.039 159.775ZM112.921 184.799C111.466 186.576 109.222 187.425 106.177 187.366C106.392 187.366 106.607 187.383 106.821 187.415C107.019 187.425 107.218 187.425 107.416 187.415C109.475 187.415 110.959 186.995 111.876 186.136C112.169 185.78 112.496 185.453 112.852 185.16L112.921 184.799ZM117.8 186.751C117.492 186.697 117.189 186.619 116.893 186.517H115.087L115.185 186.663C115.894 186.744 116.609 186.774 117.322 186.751H117.8Z" fill="#D7D7D7"/>
<path d="M139.926 159.726C139.866 160.967 139.656 162.196 139.301 163.386C138.865 165.124 138.377 166.168 137.837 166.519C136.58 166.537 135.365 166.981 134.392 167.778C133.663 168.772 133.316 169.995 133.416 171.223C133.416 171.663 133.338 172.551 133.279 173.878C133.191 174.747 133.159 175.621 133.182 176.494L133.416 184.233C133.544 185.664 133.157 187.094 132.323 188.264L132.235 188.596C132.523 188.42 132.791 188.214 133.035 187.981C133.387 187.659 133.562 187.444 133.562 187.317L133.65 178.202L133.748 187.317C133.178 188.276 132.358 189.062 131.376 189.591L131.279 189.455H125.111C124.473 189.029 123.884 188.535 123.354 187.981C122.94 187.349 122.754 186.595 122.827 185.844L122.973 176.299C122.973 175.323 122.924 173.771 122.827 171.741C122.729 169.711 122.69 168.198 122.69 167.183C122.63 166.058 122.689 164.929 122.866 163.816L123.1 164.001C123.622 166.57 123.864 169.188 123.822 171.809C123.909 171.599 123.943 171.371 123.92 171.145C123.92 170.062 123.861 168.217 123.734 165.543C123.568 163.162 123.51 161.298 123.539 159.941C123.879 160.444 124.047 161.043 124.017 161.649C124.017 162.82 123.969 163.416 123.969 163.455C123.969 163.738 124.174 164.86 124.486 166.822C124.691 167.933 124.805 169.059 124.827 170.189V171.477L125.12 171.194C125.21 170.951 125.253 170.692 125.247 170.433C125.247 170.082 125.218 169.574 125.159 168.91C125.091 168.247 125.062 167.739 125.062 167.388H125.237C125.465 168.163 125.596 168.962 125.628 169.769C125.628 170.462 125.628 171.35 125.628 172.424V174.844C125.628 175.82 125.696 177.509 125.823 179.978C125.911 182.125 125.95 183.823 125.911 185.053L126.008 185.102L126.057 185.053C126.057 184.741 126.106 184.184 126.106 183.394C126.106 182.603 126.057 181.54 125.96 180.017C125.862 178.495 125.823 177.362 125.823 176.601L126.106 176.65C126.106 176.299 126.106 175.791 126.057 175.108C126.008 174.425 126.008 173.917 126.008 173.566C125.976 172.967 126.073 172.368 126.291 171.809C127.027 173.325 127.28 177.772 127.053 185.151C128.019 185.325 128.999 185.419 129.981 185.434L130.215 172.902C130.245 171.396 130.438 169.897 130.791 168.432C131.115 167.19 131.839 166.09 132.85 165.299C133.77 164.432 134.982 163.941 136.246 163.923H136.529C136.91 163.923 137.105 163.211 137.105 161.786C137.105 160.868 137.037 159.951 137.008 159.034H136.481C135.817 159.046 135.159 159.158 134.529 159.365C133.88 159.529 133.31 159.916 132.918 160.458V161.698L132.538 161.649V162.03H131.913C131.913 162.03 131.523 161.952 130.83 161.786L130.781 161.405C130.078 161.034 129.717 160.839 129.688 160.839C130.029 160.332 130.381 159.863 130.732 159.414L129.922 159.278H130.391C130.732 159.278 130.957 159.278 131.054 159.082C129.793 159.005 128.537 158.846 127.297 158.604H127.677C127.043 158.604 126.116 158.487 124.876 158.36L125.306 158.028H131.103C130.401 157.875 129.684 157.796 128.966 157.794C127.726 157.794 127.014 157.794 126.731 157.745V157.599C127.224 157.445 127.737 157.366 128.253 157.365H131.103L132.001 158.263C133.074 157.13 134.997 156.555 137.749 156.555C138.297 156.982 138.818 157.441 139.311 157.931C139.722 158.437 139.94 159.074 139.926 159.726ZM124.632 163.289L124.418 163.904L123.92 159.024C124.353 160.406 124.592 161.841 124.632 163.289ZM131.279 189.074C130.778 189.193 130.269 189.271 129.756 189.308L125.442 189.074H131.279ZM132.518 178.582V172.931C132.382 174.813 132.382 176.701 132.518 178.582ZM137.027 158.585H136.451C135.8 158.619 135.16 158.764 134.558 159.014C133.929 159.188 133.357 159.525 132.899 159.99C133.829 159.308 134.931 158.9 136.08 158.809C136.408 158.797 136.729 158.721 137.027 158.585ZM136.881 164.187H136.451C135.639 164.306 134.854 164.563 134.129 164.948C135.017 164.598 135.939 164.343 136.881 164.187Z" fill="#D7D7D7"/>
<path d="M167.985 184.887C168.055 187.089 167.641 189.28 166.77 191.303C165.9 193.327 164.595 195.135 162.949 196.599C159.644 199.562 155.323 201.136 150.886 200.991C147.836 200.989 144.871 199.988 142.444 198.141C139.921 196.34 137.972 193.849 136.832 190.968C137.116 190.422 137.442 189.9 137.808 189.406C138.004 189.167 138.254 188.977 138.537 188.853C138.82 188.729 139.129 188.675 139.438 188.693L143.927 188.977L143.742 188.791C141.404 187.157 139.433 185.053 137.954 182.613C136.609 180.087 135.937 177.257 136.002 174.395C135.981 172.289 136.386 170.201 137.192 168.255C137.999 166.309 139.191 164.547 140.697 163.074C142.142 161.545 143.887 160.332 145.824 159.511C147.761 158.689 149.846 158.278 151.95 158.302C154.731 158.299 157.442 159.181 159.689 160.82C160.041 160.761 160.246 160.488 160.314 160.01H164.677C163.369 160.29 162.03 160.395 160.695 160.322L160.216 160.546V160.634L166.297 160.439C164.39 160.569 162.298 160.823 160.021 161.2C160.942 161.924 161.661 162.871 162.11 163.952C161.333 164.547 160.421 164.939 159.455 165.094L159.357 164.948L159.074 165.094L158.889 164.948L158.128 165.094L158.362 164.528L158.547 164.86H158.743C159.123 164.86 159.309 164.382 159.309 163.435C159.309 162.898 158.743 162.342 157.601 161.766L157.464 161.678V161.766C156.743 161.424 155.972 161.2 155.18 161.103L155.463 161.298C154.759 161.151 154.044 161.056 153.326 161.015C149.638 160.88 146.021 162.055 143.117 164.333C141.695 165.494 140.56 166.969 139.804 168.642C139.047 170.315 138.688 172.141 138.755 173.976C138.693 177.626 139.939 181.178 142.268 183.989C143.366 185.423 144.782 186.581 146.405 187.372C148.028 188.163 149.813 188.566 151.618 188.547C152.819 188.534 154.008 188.309 155.131 187.883C156.28 187.585 157.288 186.895 157.981 185.931C156.245 187.513 153.966 188.363 151.618 188.303C149.861 188.308 148.127 187.911 146.547 187.143C144.967 186.375 143.584 185.257 142.502 183.872C140.206 181.187 138.958 177.762 138.989 174.23C138.857 171.875 139.472 169.539 140.746 167.554L140.843 167.983C141.57 166.69 142.518 165.533 143.644 164.567C145.193 163.103 146.413 162.453 147.304 162.615L147.158 162.859C142.414 165.794 140.04 169.698 140.033 174.571C140.033 179.776 142.092 183.449 146.211 185.59C147.975 186.631 149.956 187.25 151.999 187.395C154.595 187.395 156.927 186.127 158.977 183.599L162.022 184.926V185.258C162.022 185.356 161.797 186.234 161.358 187.825C160.849 189.88 159.607 191.678 157.864 192.88C156.096 194.079 153.998 194.697 151.862 194.647C150.569 194.673 149.286 194.413 148.104 193.886C146.989 193.301 145.911 192.649 144.874 191.934L140.511 191.836L140.463 191.934C141.525 194.039 143.264 195.727 145.401 196.726C147.448 197.869 149.752 198.474 152.096 198.483C155.3 198.468 158.393 197.305 160.812 195.203C163.321 193.252 164.992 190.418 165.487 187.278C165.834 184.586 166.007 181.873 166.004 179.158C166.043 176.465 166.075 173.758 166.101 171.038L165.965 185.092C165.951 186.898 165.561 188.681 164.82 190.328C164.079 191.975 163.003 193.449 161.661 194.657C159.045 197.218 155.523 198.643 151.862 198.619C150.04 198.596 148.238 198.242 146.543 197.575H146.348C148.15 198.521 150.169 198.979 152.204 198.902C155.395 198.9 158.481 197.754 160.899 195.672C163.415 193.693 165.145 190.884 165.779 187.747C165.946 186.916 166.057 186.075 166.111 185.229C166.111 182.028 166.18 178.836 166.209 175.635C166.2 172.43 166.373 169.227 166.726 166.041H166.824C167 165.327 167.063 164.589 167.009 163.855C166.98 162.985 167.013 162.114 167.107 161.249C167.387 162.461 167.515 163.704 167.487 164.948C167.487 166.373 167.487 168.296 167.487 170.696V174.922L167.722 164.899H167.907C167.982 165.131 168.031 165.369 168.053 165.612L167.985 184.887ZM162.334 174.766C162.373 176.051 162.157 177.33 161.7 178.531C161.243 179.732 160.553 180.83 159.67 181.764C158.784 182.691 157.712 183.419 156.524 183.902C155.337 184.385 154.06 184.611 152.779 184.565C151.54 184.614 150.305 184.395 149.158 183.924C148.011 183.452 146.979 182.739 146.133 181.832C144.429 179.943 143.526 177.465 143.615 174.922C143.59 173.19 144.086 171.489 145.04 170.043C146.015 168.619 147.488 167.613 149.168 167.222C147.614 167.9 146.235 168.925 145.137 170.218C144.172 171.606 143.688 173.272 143.761 174.962C143.685 176.449 144.023 177.929 144.737 179.236C144.737 179.236 144.601 178.612 144.337 177.45C144.123 176.668 143.986 175.868 143.927 175.059C143.927 173.138 144.569 171.273 145.752 169.76C146.26 169.024 146.937 168.423 147.728 168.006C148.518 167.59 149.397 167.371 150.291 167.368L152.096 167.554C152.524 167.412 152.973 167.349 153.423 167.368C153.861 167.346 154.299 167.409 154.712 167.554H153.14C151.626 167.605 150.144 168.013 148.817 168.745H148.914C149.506 168.487 150.13 168.309 150.769 168.218L151.286 168.266L151.101 168.501C147.714 169.525 146.016 171.585 146.016 174.698C145.981 176.459 146.628 178.165 147.821 179.461C148.363 180.135 149.05 180.678 149.831 181.05C150.611 181.421 151.466 181.612 152.33 181.608C153.532 181.555 154.7 181.199 155.727 180.573C156.976 179.88 157.62 179.139 157.679 178.329C156.254 180.281 154.575 181.257 152.643 181.257C152.26 181.233 151.881 181.171 151.511 181.071H152.077C152.885 181.135 153.698 181.025 154.461 180.749C155.223 180.473 155.918 180.037 156.499 179.471C157.079 178.904 157.532 178.22 157.826 177.464C158.121 176.708 158.25 175.898 158.206 175.088C158.273 173.827 157.931 172.577 157.23 171.526C156.365 170.574 155.337 169.784 154.195 169.193C154.351 168.979 154.507 168.862 154.673 168.862C155.285 168.906 155.88 169.087 156.414 169.391C156.947 169.695 157.406 170.114 157.757 170.618V170.531C157.117 169.753 156.305 169.135 155.385 168.725C154.448 168.364 153.46 168.153 152.457 168.1C152.535 168.001 152.637 167.923 152.753 167.874C152.869 167.825 152.995 167.805 153.121 167.817C153.66 167.829 154.199 167.878 154.731 167.964C155.561 168.061 156.098 168.1 156.351 168.1L156.02 167.964C156.163 167.96 156.306 167.987 156.437 168.045C156.569 168.102 156.686 168.188 156.781 168.296L156.351 168.198C156.784 168.348 157.181 168.585 157.517 168.896C157.853 169.207 158.121 169.584 158.303 170.004L158.547 169.574C158.482 169.32 157.897 168.784 156.791 167.964C158.05 168.12 159.133 169.145 160.011 171.048C160.708 172.485 161.081 174.058 161.104 175.654C161.026 177.206 160.443 178.69 159.445 179.88C158.514 181.104 157.354 182.135 156.029 182.916L155.981 183.062C157.545 182.466 158.889 181.404 159.831 180.02C160.773 178.636 161.269 176.997 161.251 175.323C161.228 174.824 161.15 174.33 161.017 173.849C160.879 173.385 160.797 172.907 160.773 172.424V172.141L160.968 172.19L159.67 169.272H159.904C160.509 169.272 161.095 170.052 161.661 171.604C162.05 172.62 162.278 173.69 162.334 174.776V174.766ZM153.121 192.197H152.936L151.745 192.246C149.844 192.259 148.01 191.543 146.621 190.245C147.247 190.93 148.01 191.475 148.861 191.843C149.712 192.211 150.632 192.395 151.559 192.383L153.121 192.197ZM159.338 161.805C157.757 160.068 155.353 159.199 152.125 159.199C150.273 159.229 148.44 159.582 146.709 160.244L146.855 160.293C148.498 159.69 150.229 159.36 151.979 159.317C154.653 159.234 157.267 160.122 159.338 161.815V161.805ZM156.41 161.093C154.933 160.553 153.376 160.265 151.803 160.244C150.349 160.344 148.904 160.55 147.48 160.859L148.192 161.093C148.848 161.068 149.501 160.989 150.144 160.859C150.788 160.728 151.44 160.65 152.096 160.624C153.135 160.639 154.169 160.767 155.18 161.005L155.083 160.81C155.528 160.879 155.968 160.977 156.4 161.103L156.41 161.093ZM155.17 190.245C154.017 190.604 152.816 190.781 151.608 190.772C150.408 190.732 149.216 190.555 148.056 190.245C149.222 190.688 150.458 190.916 151.706 190.919C152.895 190.996 154.085 190.767 155.161 190.255L155.17 190.245ZM155.746 190.538C154.623 190.901 153.459 191.124 152.282 191.202C151.185 191.217 150.089 191.152 149.002 191.007C149.817 191.396 150.705 191.609 151.608 191.631C153.063 191.627 154.494 191.255 155.766 190.548L155.746 190.538ZM159.445 189.162C158.873 190.189 158.077 191.073 157.115 191.749C156.154 192.425 155.052 192.875 153.892 193.066H154.224C155.316 192.947 156.342 192.482 157.152 191.739C158.1 191.07 158.881 190.191 159.435 189.172L159.445 189.162Z" fill="#D7D7D7"/>
<path d="M201.266 173.644C201.34 174.516 201.161 175.39 200.749 176.162C200.171 176.758 199.551 177.313 198.894 177.821C199.626 178.895 199.987 179.451 199.987 179.48C199.987 180.085 199.164 181.289 197.518 183.091C196.49 184.262 195.363 185.343 194.151 186.322C191.395 188.251 188.107 189.274 184.743 189.25C181.479 189.297 178.286 188.302 175.627 186.41C172.973 184.493 170.902 181.878 169.644 178.856C168.979 176.884 168.691 174.805 168.795 172.726C168.707 170.479 169.111 168.239 169.98 166.163C170.848 164.088 172.159 162.228 173.822 160.712C177.232 157.736 181.643 156.16 186.168 156.301C185.885 156.282 185.601 156.282 185.319 156.301C180.282 156.301 176.294 157.836 173.353 160.907C170.588 163.757 168.909 167.729 168.317 172.824V172.199C168.247 170.072 168.638 167.955 169.461 165.993C170.285 164.031 171.523 162.269 173.09 160.829C174.588 159.278 176.386 158.045 178.373 157.207C180.361 156.368 182.498 155.94 184.655 155.949C186.935 155.876 189.203 156.3 191.302 157.194C193.4 158.087 195.279 159.428 196.806 161.122C199.826 164.58 201.421 169.055 201.266 173.644ZM171.782 181.091C170.14 178.17 169.337 174.854 169.459 171.506L169.41 174.434C169.488 175.642 169.762 176.828 170.22 177.948C170.52 179.092 171.051 180.161 171.782 181.091ZM197.372 173.351C197.342 170.771 196.621 168.247 195.283 166.041C194.108 163.721 192.136 161.903 189.73 160.917C187.861 160.321 185.904 160.047 183.942 160.107C182.281 160.069 180.631 160.399 179.113 161.074C177.594 161.749 176.244 162.752 175.159 164.011C172.955 166.511 171.771 169.746 171.84 173.078C171.821 174.839 172.157 176.585 172.828 178.214C173.498 179.842 174.49 181.318 175.744 182.555C176.949 183.827 178.405 184.836 180.019 185.518C181.633 186.2 183.371 186.54 185.123 186.517C187.571 186.534 189.974 185.858 192.053 184.565C194.175 183.262 195.939 181.45 197.186 179.295L191.008 179.148C189.986 179.816 188.924 180.419 187.827 180.954C186.694 181.234 185.527 181.345 184.362 181.286C183.829 181.285 183.3 181.189 182.8 181.003C183.483 181 184.164 181.045 184.84 181.139C187.69 181.139 189.733 180.365 190.969 178.817C190.081 179.295 189.213 179.793 188.373 180.241C187.386 180.753 186.283 180.999 185.172 180.954C184.127 181.011 183.082 180.826 182.119 180.415C181.156 180.004 180.301 179.377 179.619 178.582H179.853C179.237 177.972 178.723 177.267 178.331 176.494C178.115 176.555 177.891 176.588 177.667 176.591H177.335V176.543L178.243 176.308C178.134 176.12 178.067 175.91 178.047 175.693C178.033 175.6 178.033 175.504 178.047 175.41C178.301 175.498 178.506 175.791 178.662 176.26C181.961 176.103 183.728 176.025 183.981 176.025C184.275 176.015 184.567 176.065 184.84 176.172L178.858 176.504L178.955 176.689H179.238C179.902 176.689 180.751 176.689 181.795 176.689C183.162 176.621 184.011 176.591 184.362 176.591L187.407 176.123C189.306 175.837 191.227 175.723 193.146 175.781L197.186 175.928L196.611 175.449C195.758 175.391 193.67 175.391 190.345 175.449L190.54 175.313C193.195 174.991 194.903 174.835 195.664 174.835C196.189 174.828 196.715 174.861 197.235 174.932C197.272 174.673 197.295 174.413 197.303 174.151C197.372 173.82 197.372 173.546 197.372 173.351ZM198.611 172.551C198.476 168.903 196.966 165.441 194.385 162.86C191.804 160.279 188.342 158.769 184.694 158.633C182.973 158.595 181.264 158.913 179.672 159.566C178.08 160.219 176.64 161.194 175.442 162.43C177.745 160.153 180.862 159.014 184.791 159.014C186.913 159.007 189.005 159.513 190.89 160.488C192.774 161.464 194.395 162.88 195.615 164.616C196.188 165.366 196.697 166.163 197.138 166.997C197.636 167.773 197.969 168.644 198.114 169.555L198.065 169.75L197.879 169.652V169.886C197.894 170.436 197.949 170.984 198.045 171.526C198.136 172.036 198.192 172.551 198.211 173.068C198.213 173.437 198.164 173.805 198.065 174.161H198.543C198.601 173.626 198.624 173.088 198.611 172.551ZM192.531 168.793C192.446 168.919 192.333 169.023 192.201 169.098C192.069 169.173 191.921 169.215 191.77 169.223C191.738 169.508 191.738 169.796 191.77 170.082C191.667 170.085 191.567 170.049 191.49 169.983C191.412 169.916 191.362 169.822 191.35 169.72C191.282 169.486 191.174 169.369 191.008 169.369L190.872 169.701C190.613 169.501 190.389 169.26 190.208 168.988C189.934 169.169 189.647 169.329 189.349 169.467H189.544L189.3 169.76L188.969 169.662L189.349 169.516H187.397C187.456 169.838 187.524 169.994 187.583 169.994C187.641 169.994 188.246 169.945 189.008 169.847L189.105 170.043C188.176 170.283 187.214 170.379 186.255 170.326C185.6 170.346 184.947 170.417 184.303 170.54C183.678 170.656 183.045 170.728 182.41 170.755C181.806 170.734 181.203 170.679 180.605 170.589C179.991 170.493 179.371 170.437 178.75 170.423C178.228 170.407 177.706 170.437 177.189 170.511C178.316 170.715 179.459 170.826 180.605 170.843C181.138 170.843 181.929 170.804 182.976 170.726C184.02 170.648 184.801 170.609 185.309 170.609L185.211 170.843C185.426 170.854 185.641 170.854 185.855 170.843C186.065 170.811 186.277 170.795 186.49 170.794C186.76 170.799 187.024 170.88 187.251 171.028C186.997 171.536 186.177 171.819 184.782 171.887C185.641 171.819 184.723 171.79 182.029 171.79C181.74 171.802 181.453 171.841 181.171 171.907C180.892 171.972 180.608 172.011 180.322 172.024C179.786 172.002 179.253 171.93 178.731 171.809C178.018 171.672 177.501 171.585 177.189 171.555L175.432 169.174C176.193 167.452 177.387 165.956 178.897 164.831C180.462 163.867 182.282 163.398 184.118 163.484C187.911 163.484 190.459 164.922 191.76 167.798C189.925 165.046 187.599 163.669 184.782 163.669C184.257 163.644 183.731 163.693 183.22 163.816C184.923 163.898 186.611 164.183 188.246 164.665C189.791 165.457 191.005 166.771 191.672 168.374H192.189C192.025 168.545 191.881 168.735 191.76 168.94C192.023 168.929 192.283 168.88 192.531 168.793ZM178.379 167.085C178.092 167.246 177.848 167.474 177.667 167.749H177.96L178.379 167.085ZM180.946 166.373H180.663C180.36 166.473 180.082 166.635 179.845 166.848C179.608 167.062 179.418 167.322 179.287 167.612C179.775 167.111 180.334 166.683 180.946 166.344V166.373ZM190.823 176.865L179.287 177.06C180.387 179.012 182.397 179.962 185.319 179.91H185.787C182.781 179.91 180.757 179.038 179.716 177.294V177.206L182.098 178.602C182.92 179.071 183.854 179.31 184.801 179.295C186.319 179.386 187.819 178.929 189.027 178.007C187.648 178.038 186.269 177.977 184.899 177.821L184.752 177.675C185.67 177.358 186.632 177.184 187.602 177.157C188.578 177.157 189.554 177.079 190.53 177.011L190.823 176.865ZM188.969 167.466C187.793 166.62 186.386 166.156 184.938 166.139C184.076 166.141 183.224 166.328 182.439 166.685C181.639 167.046 180.839 167.407 180.048 167.749H185.367L188.969 167.466ZM197.616 179.295H197.333C196.065 181.607 194.171 183.515 191.867 184.799C189.632 186.222 187.007 186.904 184.362 186.751C184.789 186.81 185.219 186.843 185.65 186.849C188.156 186.824 190.6 186.064 192.677 184.663C194.768 183.34 196.471 181.488 197.616 179.295ZM189.925 168.51L189.828 168.276H189.544C189.158 168.29 188.774 168.352 188.403 168.461C187.768 168.588 187.427 168.666 187.261 168.705H188.237C188.334 168.705 188.949 168.637 189.925 168.51ZM190.774 175.732C189.886 175.82 189.222 175.869 188.822 175.869C189.138 175.755 189.465 175.676 189.798 175.635L190.774 175.732ZM197.284 178.914H194.522C195.069 178.914 195.859 178.963 196.903 179.051L197.284 178.914Z" fill="#D7D7D7"/>
<path d="M219.312 159.727C219.256 160.967 219.049 162.196 218.697 163.386C218.248 165.124 217.721 166.168 217.223 166.519C215.965 166.537 214.751 166.981 213.778 167.778C213.049 168.772 212.702 169.995 212.802 171.224C212.802 171.663 212.714 172.551 212.656 173.878C212.568 174.747 212.535 175.621 212.558 176.494L212.802 184.233C212.926 185.664 212.539 187.092 211.709 188.264L211.611 188.596C211.903 188.421 212.174 188.215 212.421 187.981C212.763 187.659 212.939 187.444 212.939 187.317L213.036 178.202L213.134 187.317C212.561 188.277 211.738 189.064 210.752 189.591L210.665 189.455H204.487C203.849 189.029 203.26 188.535 202.73 187.981C202.315 187.35 202.132 186.594 202.213 185.844L202.349 176.299C202.349 175.323 202.3 173.771 202.213 171.741C202.125 169.711 202.066 168.198 202.066 167.183C202.001 166.057 202.063 164.928 202.252 163.816L202.476 164.001C202.998 166.57 203.243 169.188 203.208 171.809C203.285 171.597 203.315 171.37 203.296 171.145C203.296 170.062 203.237 168.217 203.111 165.543C202.954 163.162 202.886 161.298 202.925 159.941C203.254 160.449 203.417 161.045 203.394 161.649C203.394 162.82 203.345 163.416 203.345 163.455C203.345 163.738 203.55 164.86 203.872 166.822C204.074 167.933 204.185 169.059 204.204 170.189V171.477L204.565 171.224C204.65 170.979 204.692 170.721 204.692 170.462C204.692 170.111 204.692 169.603 204.594 168.94C204.496 168.276 204.496 167.769 204.496 167.417H204.672C204.904 168.191 205.038 168.991 205.072 169.799C205.072 170.492 205.072 171.38 205.072 172.453V174.874C205.072 175.85 205.131 177.538 205.258 180.007C205.355 182.154 205.385 183.853 205.355 185.082L205.453 185.131V185.082C205.481 184.53 205.481 183.976 205.453 183.423C205.453 182.691 205.453 181.569 205.316 180.046C205.18 178.524 205.17 177.392 205.17 176.63L205.453 176.679C205.453 176.328 205.453 175.82 205.453 175.137C205.453 174.454 205.453 173.946 205.453 173.595C205.416 172.996 205.512 172.396 205.736 171.838C206.458 173.354 206.712 177.802 206.497 185.18C207.464 185.355 208.443 185.449 209.425 185.463L209.669 172.931C209.691 171.425 209.881 169.926 210.235 168.461C210.558 167.217 211.286 166.114 212.304 165.329C213.224 164.461 214.436 163.97 215.701 163.952H215.984C216.364 163.952 216.55 163.24 216.55 161.815C216.55 160.898 216.491 159.98 216.452 159.063H215.935C215.271 159.076 214.614 159.188 213.983 159.395C213.334 159.559 212.764 159.946 212.373 160.488V161.727L211.992 161.678V162.059H211.377C211.377 162.059 210.977 161.981 210.284 161.815L210.235 161.434C209.542 161.064 209.171 160.868 209.142 160.868C209.493 160.361 209.835 159.892 210.186 159.443L209.376 159.307H209.903C210.255 159.307 210.469 159.307 210.567 159.112C209.309 159.035 208.057 158.875 206.819 158.633H207.2C206.566 158.633 205.629 158.516 204.399 158.389L204.818 158.058H210.616C209.914 157.904 209.197 157.826 208.478 157.823C207.249 157.823 206.526 157.823 206.243 157.775V157.628C206.733 157.474 207.243 157.395 207.756 157.394H210.606L211.514 158.292C212.587 157.16 214.5 156.584 217.252 156.584C217.8 157.015 218.324 157.474 218.824 157.96C219.184 158.475 219.356 159.099 219.312 159.727ZM204.018 163.289L203.803 163.904L203.306 159.024C203.744 160.405 203.984 161.841 204.018 163.289ZM210.674 189.074C210.174 189.193 209.665 189.271 209.152 189.308L204.828 189.074H210.674ZM211.904 178.582V172.931C211.768 174.813 211.768 176.701 211.904 178.582ZM216.413 158.585H215.847C215.193 158.618 214.549 158.763 213.944 159.014C213.316 159.191 212.744 159.527 212.285 159.99C213.216 159.31 214.317 158.901 215.466 158.809C215.794 158.798 216.116 158.722 216.413 158.585ZM216.276 164.187H215.847C215.031 164.304 214.242 164.561 213.514 164.948C214.406 164.6 215.332 164.345 216.276 164.187Z" fill="#D7D7D7"/>
<path d="M46.4566 187.581L43.8898 190.099C42.8282 190.075 41.7662 190.108 40.7081 190.197C39.1953 190.284 38.151 190.333 37.5752 190.333C37.1495 190.338 36.7282 190.247 36.3428 190.066C35.9575 189.885 35.618 189.62 35.35 189.289C34.9083 189.456 34.4309 189.507 33.9641 189.435L33.8762 189.24C34.0449 188.929 34.234 188.629 34.4423 188.342C34.2569 188.186 33.9836 187.932 33.6322 187.581V172.483H30.841C27.3535 174.317 24.9786 175.235 23.7163 175.235C23.7814 177.772 23.7814 181.601 23.7163 186.722V187.532C22.8379 188.352 21.9596 189.24 21.1105 190.197C20.5737 190.197 19.7831 190.197 18.7584 190.197C17.7336 190.197 16.9918 190.245 16.5527 190.245C15.0403 190.354 13.5273 190.043 12.1803 189.347C11.0091 188.557 10.4235 187.093 10.4235 184.975L10.3259 158.624C10.359 158.185 10.4577 157.754 10.6187 157.345C11.2108 158.321 11.5882 165.127 11.7509 177.763C11.8674 177.578 11.9346 177.366 11.946 177.148L11.38 148.513C11.4146 148.178 11.4934 147.85 11.6142 147.537C11.8411 148.789 11.9521 150.06 11.946 151.333C11.946 153.646 12.1803 157.189 12.5609 162.069C12.8862 166.623 13.0456 170.166 13.0391 172.697C13.0391 174.161 13.0391 175.567 12.9415 176.923L13.1367 176.504L13.4686 176.162C13.5271 176.045 13.5564 172.74 13.5564 166.246C14.301 172.41 14.5328 178.626 14.2494 184.829H14.6788C14.6077 182.466 14.7023 180.102 14.9618 177.753C15.1895 178.104 15.4596 180.43 15.7719 184.731C16.148 184.804 16.5308 184.836 16.9138 184.829C17.3581 184.83 17.8018 184.798 18.2411 184.731C18.2411 181.406 18.3062 176.422 18.4363 169.779C19.3236 168.826 20.2758 167.936 21.2861 167.115L27.5519 166.978L35.2914 167.163C35.5949 167.181 35.8958 167.23 36.1893 167.31C36.7175 167.71 37.1959 168.172 37.6142 168.686C38.0805 169.113 38.4817 169.606 38.8049 170.15L38.6097 181.862C40.8445 177.191 42.0272 172.087 42.0744 166.91L42.5527 146.697H37.4288C37.4288 154.798 37.3019 160.023 37.0482 162.371C36.7279 162.652 36.4248 162.952 36.1405 163.269C35.4945 163.364 34.8408 163.397 34.1886 163.367L26.8785 163.035C25.7659 163.035 24.6728 163.035 23.5992 163.035C22.5147 163.067 21.4441 162.786 20.5151 162.225L20.4663 161.796L20.847 150.211L20.9446 162.323C21.3545 151.782 21.5594 146.43 21.5594 146.268C21.5594 145.546 21.3642 145.116 20.9836 144.989L19.5196 144.794C20.0587 144.782 20.5965 144.736 21.13 144.657C19.8316 144.547 18.5269 144.531 17.2261 144.609C15.918 144.695 14.6041 144.6 13.3222 144.326C13.9956 143.877 16.6795 143.789 21.4033 144.043L21.1593 143.75C20.0596 143.719 18.9636 143.608 17.88 143.418C18.7557 143.23 19.6488 143.136 20.5444 143.135H21.2569C22.0465 143.981 22.7677 144.888 23.4138 145.848C23.6652 147.064 23.731 148.311 23.609 149.547L23.2771 160.136H33.9543V145.497C34.5009 144.921 35.0474 144.365 35.6232 143.808C35.8878 143.53 36.2056 143.308 36.5577 143.156C36.9098 143.003 37.2891 142.923 37.6728 142.92C38.7321 142.958 39.7835 143.118 40.8057 143.398C41.8268 143.718 42.8757 143.94 43.9386 144.062C44.5437 144.404 45.139 144.775 45.7441 145.155C45.9738 145.42 46.1433 145.732 46.241 146.069C46.3387 146.406 46.3623 146.76 46.3102 147.107C46.3102 148.408 46.1833 154.059 45.9296 164.06C45.7734 170.931 45.6953 176.595 45.6953 181.052C45.6953 183.309 45.6953 185.479 45.6953 187.561L45.5001 187.893L46.1248 187.278L46.359 183.101L46.4566 187.581ZM12.883 155.91C12.8556 156.464 12.7904 157.015 12.6878 157.56C12.4926 156.005 12.3657 153.981 12.3072 151.489C12.2096 148.19 12.1478 146.18 12.1217 145.458C12.6995 148.911 12.9511 152.41 12.8732 155.91H12.883ZM13.0782 163.601C13.0847 164.697 13.1466 165.791 13.2636 166.88L13.3612 165.26C13.3612 165.26 13.2734 164.743 13.0684 163.601H13.0782ZM14.5909 186.254L14.1225 185.775V186.254H14.5909ZM18.2509 186.683V186.39H16.3965L18.2509 186.683ZM37.5264 170.091C37.2306 169.597 36.8622 169.149 36.4333 168.764C35.9348 168.432 35.3432 168.268 34.7449 168.296H21.7058L21.0422 168.432C20.4845 168.833 19.9881 169.313 19.5684 169.857L19.4806 170.482L19.666 182.301C19.666 174.792 19.7604 170.661 19.9491 169.906C20.1735 169.018 21.1202 168.579 22.7989 168.579C24.2238 168.579 26.3515 168.64 29.1818 168.764C32.0121 168.888 34.143 168.953 35.5744 168.959C36.5895 168.959 37.097 169.61 37.097 170.911L37.2336 181.696L37.5264 170.091ZM20.9348 186.234H19.8124L19.7148 186.849L19.9979 187.181L20.9348 186.234ZM37.0774 146.727C37.0124 150.207 36.8367 155.413 36.5504 162.342C36.4183 162.538 36.2408 162.698 36.0332 162.811H34.862C34.5106 162.811 30.0634 162.716 21.5204 162.528C23.7814 162.873 26.065 163.049 28.3522 163.055H35.2914C36.3943 163.055 36.9603 162.645 36.9994 161.815L37.0774 146.727ZM22.9258 160.117V156.272L22.4964 151.616V160.117H22.9258ZM34.6961 172.512H33.8665V175.645C33.9105 174.546 34.1831 173.469 34.6668 172.483L34.6961 172.512ZM34.6961 187.991C34.5181 187.89 34.3658 187.749 34.2507 187.58C34.1357 187.411 34.061 187.217 34.0324 187.015C33.9738 186.585 33.925 186.166 33.8958 185.756V187.513L34.5594 188.176L34.6961 187.991ZM41.8695 189.513C41.001 189.761 40.1129 189.934 39.2148 190.031H38.2389C37.6224 190.044 37.0058 190.012 36.3943 189.933L35.6818 189.269H35.9648C35.9648 189.425 36.4528 189.523 37.341 189.552C37.9753 189.552 38.8635 189.552 39.9956 189.552L41.8695 189.513ZM43.2944 187.083L42.3184 186.947L42.2208 187.083H43.2944ZM43.9093 155.94L43.675 179.773H43.5287L43.7726 155.94H43.9093ZM44.9536 185.219V169.779C44.8267 170.628 44.7681 171.106 44.7681 171.194L44.9536 185.219Z" fill="#D7D7D7"/>
</svg>
