<svg width="443" height="161" viewBox="0 0 443 161" fill="none" xmlns="http://www.w3.org/2000/svg">
<path d="M10.0684 117.423H116.176C116.846 117.43 117.507 117.573 118.119 117.843C118.732 118.114 119.283 118.506 119.739 118.996C120.196 119.486 120.548 120.063 120.774 120.693C121.001 121.324 121.097 121.993 121.056 122.661C118.462 158.492 88.7719 158.492 63.1223 158.492C37.4726 158.492 7.93098 156.503 5.20045 122.661C5.1568 121.992 5.24984 121.321 5.47393 120.689C5.69801 120.056 6.04844 119.477 6.50387 118.984C6.95931 118.492 7.51021 118.097 8.12303 117.824C8.73585 117.552 9.39776 117.407 10.0684 117.398V117.423Z" fill="#DD0E0E"/>
<path d="M118.005 70.7196H8.25222C7.88666 70.7181 7.52705 70.627 7.20486 70.4543C6.88266 70.2816 6.60772 70.0325 6.4041 69.7289C6.20048 69.4253 6.07438 69.0764 6.03686 68.7128C5.99935 68.3492 6.05154 67.9819 6.18888 67.6431C10.8571 56.3852 18.7578 46.7639 28.8925 39.9949C39.0273 33.2259 50.9411 29.6131 63.1285 29.6131C75.3158 29.6131 87.2297 33.2259 97.3644 39.9949C107.499 46.7639 115.4 56.3852 120.068 67.6431C120.205 67.9819 120.258 68.3492 120.22 68.7128C120.183 69.0764 120.056 69.4253 119.853 69.7289C119.649 70.0325 119.374 70.2816 119.052 70.4543C118.73 70.627 118.37 70.7181 118.005 70.7196Z" fill="#DD0E0E"/>
<path d="M24.457 54.2945C24.0688 54.29 23.6978 54.1342 23.4228 53.8601C23.2778 53.7168 23.1626 53.5461 23.0839 53.358C23.0053 53.1698 22.9648 52.9679 22.9648 52.7639C22.9648 52.56 23.0053 52.3581 23.0839 52.1699C23.1626 51.9818 23.2778 51.8111 23.4228 51.6677C31.2376 43.5264 41.4607 38.1103 52.5859 36.2175C52.9973 36.1476 53.4196 36.244 53.76 36.4854C54.1003 36.7269 54.3309 37.0937 54.4008 37.5051C54.4707 37.9165 54.3744 38.3388 54.1329 38.6792C53.8915 39.0195 53.5247 39.2501 53.1133 39.32C42.6132 41.0723 32.9566 46.1598 25.5739 53.8291C25.4277 53.9766 25.2537 54.0937 25.062 54.1736C24.8703 54.2534 24.6647 54.2945 24.457 54.2945Z" fill="#D7D7D7"/>
<path d="M21.7683 58.4931C21.7683 58.8371 21.6661 59.1734 21.4747 59.4594C21.2834 59.7453 21.0114 59.968 20.6933 60.0992C20.3753 60.2304 20.0254 60.2642 19.6881 60.1963C19.3508 60.1284 19.0413 59.9619 18.7987 59.7179C18.5562 59.4739 18.3915 59.1633 18.3257 58.8256C18.2598 58.4879 18.2957 58.1383 18.4288 57.821C18.5618 57.5037 18.7861 57.2331 19.0732 57.0435C19.3603 56.8538 19.6972 56.7537 20.0412 56.7557C20.2689 56.7557 20.4943 56.8007 20.7045 56.8882C20.9148 56.9756 21.1056 57.1037 21.2661 57.2652C21.4266 57.4267 21.5536 57.6183 21.6398 57.829C21.726 58.0397 21.7696 58.2654 21.7683 58.4931Z" fill="#D7D7D7"/>
<path d="M10.0684 119.894C9.73375 119.898 9.4035 119.971 9.09766 120.107C8.79183 120.242 8.51679 120.439 8.28924 120.685C8.06488 120.925 7.893 121.21 7.78452 121.52C7.67604 121.831 7.63334 122.16 7.65911 122.488C10.1302 153.463 36.4347 156.058 63.1222 156.058C89.192 156.058 116.164 156.058 118.585 122.488C118.602 122.159 118.552 121.829 118.439 121.519C118.327 121.209 118.153 120.925 117.928 120.683C117.704 120.441 117.433 120.246 117.132 120.111C116.831 119.975 116.506 119.902 116.176 119.894H10.0684ZM63.1222 161C41.6857 161 5.81816 161 2.74168 122.884C2.65957 121.875 2.78734 120.86 3.11695 119.903C3.44655 118.946 3.97085 118.068 4.65677 117.324C5.34797 116.579 6.18506 115.983 7.11602 115.575C8.04699 115.167 9.05192 114.955 10.0684 114.952H116.176C117.185 114.96 118.182 115.174 119.106 115.58C120.029 115.987 120.86 116.578 121.547 117.317C122.234 118.057 122.763 118.928 123.102 119.879C123.44 120.83 123.581 121.84 123.515 122.847C120.76 161 88.7966 161 63.1222 161Z" fill="#D7D7D7"/>
<path d="M8.61042 68.2485H117.646C113.123 57.526 105.539 48.3753 95.8418 41.9413C86.1448 35.5072 74.7658 32.0756 63.1283 32.0756C51.4909 32.0756 40.1119 35.5072 30.4149 41.9413C20.7178 48.3753 13.1334 57.526 8.61042 68.2485ZM118.005 73.1906H8.25211C7.4797 73.1922 6.71885 73.0031 6.03699 72.6402C5.35513 72.2773 4.77334 71.7518 4.3432 71.1102C3.91305 70.4687 3.64782 69.7309 3.57104 68.9623C3.49427 68.1937 3.6083 67.4181 3.90304 66.7041C8.75745 54.993 16.9749 44.984 27.5166 37.9422C38.0583 30.9005 50.451 27.142 63.1283 27.142C75.8057 27.142 88.1984 30.9005 98.7401 37.9422C109.282 44.984 117.499 54.993 122.354 66.7041C122.645 67.419 122.756 68.1943 122.677 68.9621C122.599 69.7299 122.334 70.4668 121.905 71.1082C121.475 71.7497 120.895 72.276 120.215 72.6412C119.535 73.0064 118.776 73.1993 118.005 73.203V73.1906Z" fill="#D7D7D7"/>
<path d="M48.753 47.6522C48.2653 48.0557 47.6464 48.266 47.0139 48.2432C46.3814 48.2204 45.7792 47.966 45.3219 47.5285C44.8645 47.091 44.5838 46.5007 44.533 45.8698C44.4822 45.2389 44.6649 44.6113 45.0464 44.1062C46.0225 43.0684 50.3716 40.1525 51.4094 41.1409C52.4473 42.1294 49.7785 46.6143 48.7901 47.6522H48.753Z" fill="#D7D7D7"/>
<path d="M23.1404 62.9852C22.8621 63.1791 22.5484 63.3163 22.2171 63.3889C21.8858 63.4616 21.5435 63.4683 21.2096 63.4086C20.8757 63.3489 20.5569 63.2241 20.2713 63.0412C19.9857 62.8583 19.7389 62.621 19.545 62.3427C19.3511 62.0645 19.2139 61.7507 19.1412 61.4195C19.0686 61.0882 19.0619 60.7458 19.1216 60.412C19.1812 60.0781 19.3061 59.7593 19.4889 59.4736C19.6718 59.188 19.9092 58.9412 20.1874 58.7473C21.423 57.9319 26.2045 55.9674 27.0199 57.1411C27.8354 58.3149 24.3141 62.1698 23.1404 62.9852Z" fill="#D7D7D7"/>
<path d="M60.4411 59.9828C60.3526 60.6627 59.9977 61.2797 59.4543 61.6979C58.9109 62.1161 58.2237 62.3014 57.5438 62.2129C56.8638 62.1245 56.2469 61.7695 55.8286 61.2261C55.4104 60.6828 55.2251 59.9955 55.3136 59.3156C55.4989 57.8947 57.3152 52.9897 58.7237 53.1379C60.1322 53.2862 60.6264 58.5372 60.4411 59.9457V59.9828Z" fill="#D7D7D7"/>
<path d="M81.4081 42.7718C81.7845 43.2832 81.9592 43.9154 81.899 44.5475C81.8387 45.1796 81.5476 45.7673 81.0814 46.1984C80.6152 46.6295 80.0065 46.8737 79.3716 46.8843C78.7367 46.8949 78.1202 46.6712 77.6398 46.256C76.6637 45.2182 74.0073 40.7208 75.0451 39.7324C76.083 38.744 80.4197 41.6845 81.4081 42.7224V42.7718Z" fill="#D7D7D7"/>
<path d="M88.9449 60.5141C89.1964 60.742 89.4005 61.0173 89.5457 61.3242C89.6908 61.631 89.774 61.9635 89.7906 62.3025C89.8073 62.6415 89.757 62.9805 89.6426 63.3001C89.5282 63.6197 89.352 63.9136 89.1241 64.1651C88.8961 64.4166 88.6208 64.6207 88.314 64.7658C88.0071 64.9109 87.6747 64.9942 87.3357 65.0108C86.9967 65.0274 86.6577 64.9771 86.3381 64.8628C86.0185 64.7484 85.7246 64.5722 85.4731 64.3442C84.4229 63.3929 81.4082 59.1056 82.3595 58.0554C83.3109 57.0052 87.8824 59.5504 88.9449 60.5264V60.5141Z" fill="#D7D7D7"/>
<path d="M102.289 50.6175C102.67 51.1707 102.821 51.8508 102.709 52.5133C102.597 53.1759 102.231 53.7687 101.689 54.1659C101.147 54.5631 100.472 54.7335 99.8063 54.6407C99.1408 54.548 98.5376 54.1995 98.1249 53.6693C97.2724 52.5202 95.1967 47.7263 96.3457 46.8862C97.4948 46.046 101.449 49.4684 102.289 50.5928V50.6175Z" fill="#D7D7D7"/>
<path d="M104.451 113.358C98.2732 113.358 95.172 110.368 92.4044 107.736C89.9333 105.352 87.9565 103.474 83.7556 103.474C79.5548 103.474 77.578 105.352 75.1069 107.736C72.3517 110.368 69.2258 113.358 63.0728 113.358C56.9199 113.358 53.7816 110.368 51.0264 107.736C48.5553 105.352 46.5784 103.474 42.3776 103.474C38.1768 103.474 36.1999 105.352 33.7289 107.736C30.9736 110.368 27.8477 113.358 21.6948 113.358C15.5418 113.358 12.4159 110.368 9.66069 107.736C7.48615 105.648 5.59578 103.857 2.24749 103.535C1.59212 103.473 0.988322 103.153 0.568931 102.646C0.149541 102.138 -0.0510966 101.485 0.0111633 100.83C0.0734233 100.174 0.393479 99.5704 0.900919 99.151C1.40836 98.7316 2.06162 98.5309 2.71699 98.5932C7.81974 99.0874 10.6368 101.769 13.1202 104.153C15.6036 106.538 17.5681 108.403 21.7689 108.403C25.9697 108.403 27.9466 106.525 30.4176 104.153C33.1729 101.509 36.2988 98.5191 42.4518 98.5191C48.6047 98.5191 51.7306 101.509 54.4982 104.153C56.9693 106.525 58.9461 108.403 63.1469 108.403C67.3478 108.403 69.3246 106.525 71.7957 104.153C74.5509 101.509 77.6768 98.5191 83.8298 98.5191C89.9827 98.5191 93.121 101.509 95.8762 104.153C98.3473 106.525 100.324 108.403 104.525 108.403C108.726 108.403 110.703 106.525 113.174 104.153C115.645 101.781 118.474 99.0874 123.589 98.5932C124.245 98.5309 124.898 98.7316 125.405 99.151C125.913 99.5704 126.233 100.174 126.295 100.83C126.357 101.485 126.157 102.138 125.737 102.646C125.318 103.153 124.714 103.473 124.059 103.535C120.649 103.857 118.771 105.648 116.646 107.736C113.878 110.368 110.752 113.358 104.599 113.358H104.451Z" fill="#D7D7D7"/>
<path d="M64.2836 34.8768H64.0612C63.4093 34.8172 62.8077 34.5014 62.3885 33.9987C61.9692 33.4961 61.7665 32.8476 61.8248 32.1956L64.5554 2.25867C64.6144 1.6033 64.9313 0.998204 65.4364 0.576496C65.9415 0.154788 66.5935 -0.0489886 67.2488 0.00999449C67.9042 0.0689776 68.5093 0.385889 68.931 0.891011C69.3527 1.39613 69.5565 2.04809 69.4975 2.70346L66.7423 32.6651C66.6866 33.2812 66.4019 33.854 65.9444 34.2704C65.4868 34.6867 64.8898 34.9163 64.2712 34.9138L64.2836 34.8768Z" fill="#D7D7D7"/>
<path d="M68.225 19.6303C71.5362 20.8659 75.1687 20.2975 78.9865 19.6303C82.8043 18.9632 86.8198 18.3083 90.9094 19.445L91.7619 7.4974C88.4507 6.26187 84.8182 6.83021 81.0128 7.4974C77.2073 8.16459 73.1671 8.80707 69.0775 7.67038L68.225 19.618V19.6303ZM93.084 25.5485C92.6495 25.5514 92.2224 25.4361 91.8484 25.215C88.1418 23.1145 84.0769 23.8064 79.7402 24.5354C74.9587 25.3385 69.547 26.2528 64.3578 23.2999C63.956 23.0693 63.627 22.7304 63.4086 22.3219C63.1901 21.9134 63.0909 21.4516 63.1222 20.9894L64.3578 3.95142C64.3875 3.53542 64.5221 3.13372 64.7489 2.78374C64.9758 2.43377 65.2875 2.14689 65.6551 1.94985C66.0218 1.74648 66.4342 1.63977 66.8536 1.63977C67.2729 1.63977 67.6853 1.74648 68.052 1.94985C71.7586 4.05026 75.8112 3.35836 80.1479 2.6294C84.9294 1.8263 90.3411 0.924362 95.5303 3.86493C95.9341 4.09644 96.2643 4.43729 96.4829 4.84823C96.7015 5.25917 96.7996 5.7235 96.7658 6.18773L95.5303 23.2134C95.5156 23.6275 95.397 24.0312 95.1854 24.3874C94.9738 24.7437 94.676 25.041 94.3195 25.252C93.9626 25.4447 93.5637 25.5465 93.1581 25.5485H93.084Z" fill="#D7D7D7"/>
<path d="M120.266 81.271H5.18802C4.53265 81.271 3.90412 81.0107 3.44071 80.5472C2.97729 80.0838 2.71695 79.4553 2.71695 78.7999C2.71695 78.1446 2.97729 77.516 3.44071 77.0526C3.90412 76.5892 4.53265 76.3289 5.18802 76.3289H120.266C120.921 76.3289 121.55 76.5892 122.013 77.0526C122.476 77.516 122.737 78.1446 122.737 78.7999C122.737 79.4553 122.476 80.0838 122.013 80.5472C121.55 81.0107 120.921 81.271 120.266 81.271Z" fill="#D7D7D7"/>
<path d="M120.266 96.4063H5.18802C4.53265 96.4063 3.90412 96.146 3.44071 95.6826C2.97729 95.2192 2.71695 94.5906 2.71695 93.9353C2.71695 93.2799 2.97729 92.6514 3.44071 92.188C3.90412 91.7246 4.53265 91.4642 5.18802 91.4642H120.266C120.921 91.4642 121.55 91.7246 122.013 92.188C122.476 92.6514 122.737 93.2799 122.737 93.9353C122.737 94.5906 122.476 95.2192 122.013 95.6826C121.55 96.146 120.921 96.4063 120.266 96.4063Z" fill="#D7D7D7"/>
<path d="M15.0353 88.6348H8.19047C7.71206 88.6348 7.25323 88.4448 6.91494 88.1065C6.57664 87.7682 6.3866 87.3094 6.3866 86.8309C6.3866 86.3525 6.57664 85.8937 6.91494 85.5554C7.25323 85.2171 7.71206 85.0271 8.19047 85.0271H15.0353C15.5137 85.0271 15.9726 85.2171 16.3109 85.5554C16.6492 85.8937 16.8392 86.3525 16.8392 86.8309C16.8392 87.3094 16.6492 87.7682 16.3109 88.1065C15.9726 88.4448 15.5137 88.6348 15.0353 88.6348Z" fill="#D7D7D7"/>
<path d="M35.1127 88.6348H28.2679C27.7894 88.6348 27.3306 88.4448 26.9923 88.1065C26.654 87.7682 26.464 87.3094 26.464 86.8309C26.464 86.3525 26.654 85.8937 26.9923 85.5554C27.3306 85.2171 27.7894 85.0271 28.2679 85.0271H35.1127C35.5911 85.0271 36.05 85.2171 36.3883 85.5554C36.7266 85.8937 36.9166 86.3525 36.9166 86.8309C36.9166 87.3094 36.7266 87.7682 36.3883 88.1065C36.05 88.4448 35.5911 88.6348 35.1127 88.6348Z" fill="#D7D7D7"/>
<path d="M55.1902 88.6348H48.3453C47.8669 88.6348 47.4081 88.4448 47.0698 88.1065C46.7315 87.7682 46.5414 87.3094 46.5414 86.8309C46.5414 86.3525 46.7315 85.8937 47.0698 85.5554C47.4081 85.2171 47.8669 85.0271 48.3453 85.0271H55.1902C55.6686 85.0271 56.1274 85.2171 56.4657 85.5554C56.804 85.8937 56.9941 86.3525 56.9941 86.8309C56.9941 87.3094 56.804 87.7682 56.4657 88.1065C56.1274 88.4448 55.6686 88.6348 55.1902 88.6348Z" fill="#D7D7D7"/>
<path d="M75.2676 88.6348H68.3733C67.8949 88.6348 67.436 88.4448 67.0977 88.1065C66.7595 87.7682 66.5694 87.3094 66.5694 86.8309C66.5694 86.3525 66.7595 85.8937 67.0977 85.5554C67.436 85.2171 67.8949 85.0271 68.3733 85.0271H75.2181C75.6966 85.0271 76.1554 85.2171 76.4937 85.5554C76.832 85.8937 77.022 86.3525 77.022 86.8309C77.022 87.3094 76.832 87.7682 76.4937 88.1065C76.1554 88.4448 75.6966 88.6348 75.2181 88.6348H75.2676Z" fill="#D7D7D7"/>
<path d="M95.345 88.6348H88.5002C88.0217 88.6348 87.5629 88.4448 87.2246 88.1065C86.8863 87.7682 86.6963 87.3094 86.6963 86.8309C86.6963 86.3525 86.8863 85.8937 87.2246 85.5554C87.5629 85.2171 88.0217 85.0271 88.5002 85.0271H95.345C95.8234 85.0271 96.2823 85.2171 96.6206 85.5554C96.9588 85.8937 97.1489 86.3525 97.1489 86.8309C97.1489 87.3094 96.9588 87.7682 96.6206 88.1065C96.2823 88.4448 95.8234 88.6348 95.345 88.6348Z" fill="#D7D7D7"/>
<path d="M115.422 88.6348H108.578C108.099 88.6348 107.64 88.4448 107.302 88.1065C106.964 87.7682 106.774 87.3094 106.774 86.8309C106.774 86.3525 106.964 85.8937 107.302 85.5554C107.64 85.2171 108.099 85.0271 108.578 85.0271H115.422C115.901 85.0271 116.36 85.2171 116.698 85.5554C117.036 85.8937 117.226 86.3525 117.226 86.8309C117.226 87.3094 117.036 87.7682 116.698 88.1065C116.36 88.4448 115.901 88.6348 115.422 88.6348Z" fill="#D7D7D7"/>
<path d="M220.715 63.6262H177.815C169.633 63.6262 163 70.2591 163 78.4412V121.341C163 129.524 169.633 136.156 177.815 136.156H220.715C228.897 136.156 235.53 129.524 235.53 121.341V78.4412C235.53 70.2591 228.897 63.6262 220.715 63.6262Z" fill="#DD0E0E"/>
<path d="M282.891 108.744C282.813 111.949 281.917 115.08 280.287 117.84C278.311 121.403 275.196 124.198 271.44 125.777C267.725 127.218 263.787 127.998 259.803 128.082L247.679 128.207L260.65 128.319C268.45 128.319 274.734 125.715 279.502 120.507C275.183 126.006 268.413 128.751 259.192 128.743C249.972 128.734 245.204 128.697 244.888 128.631C244.203 127.983 243.517 127.31 242.832 126.625C242.12 126.046 241.645 125.225 241.499 124.319C241.337 121.491 241.312 117.741 241.436 113.105C241.553 106.31 241.611 102.535 241.611 101.779C241.611 100.159 241.611 97.7296 241.399 94.5024C241.187 91.2753 241.187 88.8455 241.187 87.2257C241.187 85.0826 241.187 82.8772 241.312 80.6219L241.798 80.6842C242.52 82.3455 242.936 87.6162 243.044 96.4961C243.226 96.1654 243.309 95.7887 243.28 95.412C243.28 95.2127 243.123 87.6535 242.807 72.7346C243.037 73.2159 243.197 73.7279 243.28 74.2548C243.28 75.8746 243.384 78.3209 243.592 81.5938C244.153 84.7596 244.536 87.9544 244.738 91.1631C244.738 91.6865 244.738 92.4091 244.626 93.4682C244.514 94.5274 244.502 95.25 244.502 95.7734C245.062 95.412 245.349 95.1005 245.349 94.8638L245.287 87.4625C245.944 89.5405 246.251 91.7132 246.196 93.8919L245.984 101.169L246.832 121.591V113.89C246.832 113.205 246.757 112.183 246.607 110.8C246.458 109.417 246.396 108.395 246.396 107.71V105.654L246.881 105.953V105.53C246.881 104.807 246.881 103.798 246.794 102.527C246.707 101.256 246.707 100.296 246.707 99.6485C246.703 98.6573 246.762 97.6668 246.881 96.683L247.193 96.4338C248.051 99.5565 248.499 102.777 248.526 106.016C248.526 109.205 248.526 112.399 248.526 115.597C248.526 116.283 248.526 117.28 248.402 118.6C248.277 119.921 248.277 120.893 248.277 121.528L260.226 122.139C264.484 122.54 268.748 121.448 272.288 119.049C274.025 117.841 275.426 116.211 276.359 114.313C277.292 112.414 277.726 110.309 277.621 108.196C277.727 105.84 277.043 103.515 275.677 101.592C274.236 99.7732 272.388 98.3179 270.282 97.3433C270.282 97.144 270.282 96.683 270.157 95.9478C270.09 95.4855 270.052 95.0194 270.045 94.5523V94.1286L273.92 90.3906C274.971 88.8181 275.483 86.9464 275.378 85.0577C275.417 83.0911 274.959 81.1464 274.046 79.404C273.133 77.6615 271.796 76.1775 270.157 75.0896C266.943 72.7996 263.076 71.6067 259.13 71.688C257.626 71.5818 256.129 71.3988 254.644 71.1397H256.401C260.004 71.0705 263.592 71.627 267.005 72.7845C269.502 73.6922 271.648 75.3671 273.135 77.5691C274.705 79.7456 275.551 82.3612 275.552 85.0452C275.523 87.4099 274.833 89.7192 273.559 91.7114V91.8235C275.162 90.7769 275.968 88.5174 275.976 85.0452C276.034 82.0059 274.98 79.0501 273.01 76.7343C270.999 74.4423 268.368 72.7807 265.435 71.9496C262.6 71.3665 259.718 71.0412 256.825 70.9778C252.464 70.687 250.059 70.4046 249.61 70.1305L250.333 70.0682L244.701 69.6445C245.15 69.1586 247.131 68.9094 250.644 68.9094C252.102 68.9094 253.897 68.9094 256.04 69.0963L259.616 69.2209L248.402 68.7349L248.215 68.4857C248.653 68.2782 249.126 68.1556 249.61 68.1244H258.818C264.013 67.895 269.138 69.3887 273.397 72.3733C275.444 73.8541 277.092 75.82 278.193 78.0948C279.293 80.3696 279.811 82.882 279.701 85.4065C279.688 88.0066 279.065 90.5672 277.882 92.8826C277.751 92.815 277.606 92.7768 277.459 92.7705C277.097 92.7705 276.698 93.0446 276.213 93.6178C275.727 94.1909 275.328 94.7392 275.241 94.8638C277.455 96.5112 279.398 98.4957 280.997 100.745C282.338 103.192 282.992 105.956 282.891 108.744ZM244.464 79.2762C244.394 79.6981 244.294 80.1144 244.165 80.5222L243.43 70.9404C244.201 73.6493 244.55 76.4609 244.464 79.2762ZM245.075 87.8861C244.95 87.45 244.763 86.7772 244.527 85.8925L244.763 85.282C244.963 86.1292 245.075 86.528 245.075 86.6152V87.8861ZM246.832 124.02V123.896C246.854 123.743 246.83 123.587 246.763 123.447C246.697 123.307 246.591 123.19 246.458 123.111V124.02H246.832ZM247.617 124.02L247.131 123.834L246.944 124.02H247.617ZM263.989 123.771H263.553C263.032 123.824 262.507 123.845 261.983 123.834C261.46 123.834 257.784 123.613 250.956 123.173C250.669 123.173 250.258 123.173 249.71 123.173L248.626 123.235L248.476 123.223V123.883L258.444 124.195L263.989 123.771ZM271.864 107.473C271.864 111.436 270.248 114.002 267.017 115.174C266.164 115.519 265.266 115.741 264.351 115.834L262.182 115.747C265.484 115.423 267.777 114.825 269.023 113.928C270.643 112.756 271.515 110.663 271.515 107.623C271.514 107.11 271.43 106.601 271.266 106.115C270.992 109.338 270.448 111.54 269.634 112.719C268.55 114.414 266.456 115.211 263.404 115.211C261.946 115.211 261.061 115.012 260.737 114.613C260.244 114.524 259.757 114.403 259.279 114.252L257.647 114.974L257.772 115.585C257.426 115.262 256.992 115.05 256.526 114.974V114.613L256.164 114.252L255.491 114.675L255.741 115.647L255.442 115.336L255.317 115.523L254.956 115.099V114.613L255.317 114.675V114.501C255.312 114.214 255.27 113.929 255.192 113.654L254.956 113.716V113.043C255.024 113.043 255.091 113.029 255.154 113.002C255.216 112.974 255.272 112.934 255.318 112.884C255.364 112.833 255.399 112.773 255.42 112.709C255.441 112.644 255.449 112.575 255.442 112.507C255.431 112.412 255.387 112.323 255.317 112.258C254.794 112.258 254.532 112.507 254.532 112.981C254.544 113.237 254.582 113.492 254.644 113.741C254.704 113.949 254.746 114.161 254.769 114.376C254.798 114.516 254.798 114.66 254.769 114.8C254.355 114.503 254.073 114.056 253.984 113.554C253.894 113.015 253.873 112.466 253.921 111.922C254.009 110.95 254.046 110.439 254.046 110.402C254.007 109.495 253.886 108.595 253.685 107.71C253.479 106.843 253.354 105.959 253.311 105.069C253.311 101.954 254.304 100.396 256.289 100.396H258.108H259.927C259.566 100.396 258.868 100.234 257.859 100.022C257.203 99.8839 256.535 99.8047 255.865 99.7855C255.265 99.8156 254.699 100.074 254.283 100.508C253.921 100.957 253.535 101.405 253.136 101.841V105.305C253.182 105.928 253.282 106.545 253.435 107.149C253.614 107.789 253.677 108.456 253.622 109.118H253.074C253.096 109.772 253.175 110.422 253.311 111.062C253.263 111.428 253.14 111.78 252.95 112.096C251.94 111.81 251.442 110.028 251.442 106.751C251.457 106.334 251.494 105.918 251.554 105.505C251.623 105.093 251.664 104.676 251.679 104.259C251.651 103.878 251.58 103.502 251.467 103.137C251.357 102.793 251.286 102.438 251.255 102.078C251.255 101.144 252.501 99.798 255.13 98.0162C255.379 98.1076 257.726 98.4731 262.17 99.1127C264.541 99.36 266.833 100.103 268.898 101.293C269.874 101.989 270.658 102.921 271.176 104.002C271.695 105.082 271.931 106.277 271.864 107.473ZM268.836 85.2197C268.836 90.1165 266.344 92.5587 261.497 92.5587C260.773 92.5301 260.058 92.3871 259.379 92.135C261.355 92.2248 263.334 92.0402 265.26 91.5868C266.21 91.3261 267.032 90.7248 267.567 89.8975C268.102 89.0703 268.315 88.0749 268.163 87.1011V86.0171C267.972 87.6954 267.277 89.2765 266.17 90.5526C264.859 91.5673 263.21 92.0441 261.559 91.8858C261.013 91.87 260.468 91.8201 259.927 91.7363L258.282 91.5245C257.938 91.1342 257.513 90.8238 257.036 90.6149C256.795 90.7462 256.573 90.9097 256.376 91.1008C256.545 91.3687 256.686 91.6525 256.8 91.9481C256.712 91.836 256.538 91.5245 256.251 91.0385L255.579 91.35C255.825 91.509 256.016 91.7394 256.127 92.0104L255.828 91.7114V92.0104L255.105 91.35V90.9762L255.952 90.6772C255.828 90.4778 255.666 90.1912 255.466 89.8299V90.4404L255.105 90.0666V89.7053H255.591C255.463 89.5329 255.397 89.322 255.404 89.1072C255.453 88.7154 255.532 88.328 255.641 87.9484L254.856 88.0107C254.776 88.1377 254.733 88.2843 254.731 88.4344C254.748 88.6707 254.79 88.9047 254.856 89.1321C254.924 89.3378 254.966 89.5514 254.981 89.7676H254.706C254.183 89.7676 253.897 89.3689 253.859 88.4344C253.946 89.9296 253.984 89.3066 253.984 86.5529C253.942 85.807 253.82 85.0678 253.622 84.3475C253.42 83.6445 253.295 82.9218 253.249 82.1919C253.314 81.5648 253.546 80.9667 253.921 80.4599C254.37 79.7621 254.769 79.4008 255.167 79.4008C255.648 79.4164 256.127 79.4663 256.6 79.5503C257.068 79.6438 257.544 79.6979 258.021 79.7123C258.776 79.7165 259.528 79.6329 260.264 79.4631C257.51 79.0644 256.052 78.8525 255.903 78.8525C255.219 78.9255 254.583 79.2391 254.108 79.7372C253.835 79.9308 253.605 80.1793 253.434 80.4668C253.262 80.7543 253.152 81.0745 253.112 81.4069C253.042 82.6395 253.207 83.874 253.597 85.0452V85.3443L253.049 85.4065C253.058 85.6824 253.088 85.9573 253.136 86.2289C253.188 86.5169 253.217 86.8086 253.224 87.1011V87.5871L252.85 87.7117C251.928 86.9765 251.467 85.6308 251.467 83.6497C251.467 81.6685 252.713 79.6625 255.28 77.2826L256.376 76.9835C257.454 77.3632 258.569 77.6264 259.703 77.7685C261.485 78.0053 262.619 78.1922 263.105 78.3168C264.712 78.672 266.158 79.548 267.216 80.8088C268.285 82.0271 268.862 83.5993 268.836 85.2197ZM256.712 113.417V112.009H256.339V112.246C256.339 112.445 256.177 112.657 255.865 112.856C255.554 113.056 255.379 113.255 255.379 113.467C255.814 113.347 256.27 113.33 256.712 113.417ZM257.198 113.778V113.467L255.741 113.654L255.977 114.077C256.393 114.015 256.802 113.915 257.198 113.778ZM257.373 89.9545C257.155 89.2202 256.992 88.4705 256.887 87.7117L256.712 88.4967C256.819 88.637 256.88 88.8066 256.887 88.9826C256.887 89.3813 256.625 89.5682 256.102 89.5309L256.65 89.7676C256.438 90.0237 256.214 90.2691 255.977 90.5027L256.289 90.6149C256.687 90.4612 257.054 90.2375 257.373 89.9545ZM267.341 108.383C267.383 107.945 267.323 107.503 267.165 107.092C267.007 106.681 266.756 106.313 266.431 106.016C265.709 105.53 264.998 105.044 264.313 104.558C262.865 104.394 261.409 104.315 259.952 104.321C259.785 104.326 259.619 104.29 259.469 104.216C259.32 104.142 259.19 104.033 259.092 103.897C258.87 103.632 258.67 103.349 258.494 103.05V104.62C260.096 104.612 261.696 104.733 263.279 104.981L263.404 105.231L258.42 104.919V112.009H257.174C257.211 112.452 257.211 112.899 257.174 113.342H257.772C257.974 113.311 258.178 113.29 258.382 113.28C258.432 113.271 258.482 113.274 258.53 113.289C258.578 113.304 258.622 113.331 258.657 113.366C258.693 113.402 258.719 113.445 258.734 113.493C258.749 113.541 258.752 113.592 258.743 113.641C258.544 113.965 258.096 114.09 257.41 114.003V114.426H257.722C258.433 114.433 259.121 114.176 259.653 113.703C261.074 113.703 262.419 113.703 263.715 113.517H263.167C262.237 113.559 261.305 113.501 260.388 113.342L260.201 113.031C261.107 112.637 262.071 112.393 263.055 112.308C264.089 112.222 265.096 111.934 266.02 111.461C266.489 111.108 266.856 110.638 267.084 110.097C267.312 109.556 267.392 108.965 267.316 108.383H267.341ZM257.622 102.041C257.494 102.209 257.389 102.393 257.311 102.589L257.497 102.527L257.622 102.041ZM264.101 86.1542C263.839 85.2746 263.416 84.451 262.855 83.7244C262.322 83.6316 261.794 83.511 261.273 83.3631H258.307V83.7867C259.611 83.7136 260.917 83.8396 262.182 84.1605L262.369 84.335L262.008 84.3973C261.489 84.1747 260.927 84.0725 260.363 84.0983C260.043 84.1012 259.722 84.122 259.404 84.1605H258.444V86.5778C258.444 86.2538 258.569 87.0388 258.806 88.9452H261.111C262.021 88.6842 262.912 88.3594 263.777 87.9733C263.999 87.4058 264.109 86.8008 264.101 86.1915V86.1542ZM263.678 101.243H260.401C260.812 101.243 261.647 101.318 263.08 101.48L263.678 101.243ZM263.428 80.8586C262.858 80.5735 262.243 80.3881 261.609 80.3104H260.575C261.049 80.331 261.519 80.4148 261.971 80.5596C262.66 80.6842 263.146 80.7839 263.428 80.8586ZM264.674 83.712C264.6 83.388 264.189 83.0267 263.428 82.6155H262.88C263.468 82.9284 264.038 83.2737 264.587 83.6497L264.674 83.712ZM266.431 104.321C265.928 103.853 265.328 103.5 264.674 103.287H263.428C264.089 103.486 265.048 103.81 266.344 104.259L266.431 104.321ZM267.042 86.3162V85.8427C267.023 85.3623 266.973 84.8837 266.892 84.4098C266.789 84.026 266.611 83.6662 266.369 83.3506C266.733 84.2765 266.931 85.2592 266.955 86.2538L267.042 86.3162ZM274.805 99.2871C272.661 97.7919 271.328 97.0443 270.805 97.0443H270.68L274.805 99.2871ZM272.562 96.4338L271.827 96.197V96.5584L272.25 96.683L272.562 96.4338ZM279.34 104.196C278.958 102.566 278.208 101.045 277.148 99.7492C276.087 98.4534 274.745 97.4174 273.222 96.7203L272.674 97.0817C274.251 97.7503 275.669 98.7438 276.836 99.9973C277.97 101.156 278.801 102.577 279.253 104.134L279.34 104.196ZM276.138 93.1069H273.098C273.745 93.5929 274.344 94.0539 275.041 94.5024C275.438 94.0612 275.777 93.5713 276.051 93.0446L276.138 93.1069ZM281.707 108.994C280.947 113.915 279.502 117.653 277.409 120.208C278.878 118.757 279.962 116.963 280.561 114.987C281.259 113.044 281.617 110.996 281.62 108.931L281.707 108.994ZM280.013 110.015V107.025C279.889 109.603 279.505 112.162 278.867 114.663C279.347 113.124 279.701 111.549 279.926 109.953L280.013 110.015Z" fill="#D7D7D7"/>
<path d="M318.726 126.201L316.596 128.319H308.783L307.45 126.961C305.706 128.581 303.126 129.391 299.687 129.391C294.521 129.391 290.459 127.775 287.501 124.544C284.677 121.429 283.265 117.304 283.265 112.171V101.63C283.265 97.1855 283.265 93.6883 283.265 91.1382L283.452 90.5899C283.003 90.9139 282.762 93.3187 282.729 97.8043V90.9513L284.386 89.319C284.828 88.824 285.444 88.5202 286.106 88.4717C286.667 88.4717 287.576 88.4717 288.822 88.3845C290.068 88.2973 291.015 88.2848 291.651 88.2848C292.542 88.224 293.427 88.4848 294.143 89.02L296.074 90.9513C296.074 92.135 296.074 93.6676 296.074 95.5615V109.891C296.074 114.335 297.631 116.561 300.746 116.569C303.849 116.569 305.394 114.538 305.344 110.501L305.17 94.8638C305.1 94.1381 305.225 93.4069 305.531 92.7455C305.866 93.7642 306.05 94.8261 306.079 95.8979C306.154 97.0194 306.241 98.1532 306.316 99.2871C306.403 98.7637 306.503 97.4056 306.628 95.2251C306.74 92.7954 306.777 91.4871 306.74 91.1631C307.064 90.7145 307.55 90.1164 308.198 89.3439H314.802C314.259 89.5623 313.689 89.7049 313.107 89.7676C312.658 89.7676 312.073 89.7676 311.35 89.7676H309.593C308.459 89.7676 307.737 90.0666 307.413 90.6772V90.864L307.948 90.2535C312.683 89.9295 315.516 89.8091 316.446 89.8922C314.943 90.1432 313.422 90.2641 311.898 90.2535C310.613 90.2208 309.329 90.3421 308.073 90.6149L307.587 91.1008C307.587 91.512 307.487 92.1101 307.413 92.92C307.413 92.596 307.288 92.0976 307.163 91.4123C306.971 91.7453 306.848 92.1142 306.802 92.4963C306.859 94.093 307.03 95.6836 307.313 97.2561C307.605 98.8276 307.78 100.419 307.836 102.016C307.836 102.701 307.836 103.872 307.774 105.53C307.712 107.187 307.674 108.196 307.774 109.043V109.517L308.385 108.794V100.433L308.983 108.246C308.983 116.171 306.113 120.133 300.373 120.133C299.157 120.194 297.945 119.942 296.854 119.401C295.764 118.86 294.83 118.048 294.143 117.043C292.822 114.943 292.206 112.477 292.386 110.003L292.747 93.5181H291.302C291.083 94.1811 290.978 94.876 290.99 95.574C291.05 97.4188 291.254 99.2561 291.601 101.069C291.941 102.878 292.146 104.711 292.211 106.551C292.065 109.618 292.41 112.689 293.233 115.647C293.688 117.092 294.62 118.34 295.876 119.186C297.132 120.033 298.638 120.428 300.148 120.307C300.839 120.264 301.526 120.172 302.204 120.033C303.263 119.859 303.849 119.759 303.961 119.759L303.849 120.071H303.961C304.497 120.071 305.207 119.585 306.266 118.613C307.021 117.99 307.623 117.201 308.023 116.308C308.43 115.095 308.978 113.114 309.668 110.364C309.844 110.872 309.924 111.409 309.905 111.947C310.047 114.566 309.152 117.135 307.413 119.099C306.493 120.01 305.393 120.719 304.182 121.178C302.972 121.638 301.678 121.838 300.385 121.765C296.211 121.765 293.47 119.921 292.137 116.245C291.397 114.194 291.032 110.617 291.04 105.517C291.04 104.745 291.04 103.561 291.04 101.941C291.04 100.321 291.04 99.1126 291.04 98.3027C290.988 97.4509 290.812 96.6113 290.517 95.8107C290.28 94.9668 289.923 94.1612 289.458 93.4184C289.059 93.4184 288.448 93.4184 287.638 93.2938L287.339 111.361C287.229 113.603 287.452 115.85 288 118.027C288.837 120.505 290.57 122.581 292.859 123.846C295.056 125.224 297.593 125.962 300.186 125.977C301.748 126.068 303.309 125.777 304.734 125.129C305.941 124.181 307.04 123.103 308.011 121.915L310.067 122.45C310.042 122.574 310.042 122.702 310.069 122.826C310.096 122.95 310.147 123.066 310.221 123.169C310.294 123.272 310.388 123.359 310.497 123.424C310.605 123.489 310.726 123.531 310.852 123.547C310.819 123.799 310.732 124.041 310.596 124.256C310.46 124.471 310.28 124.654 310.067 124.793V125.167C312.01 125.316 313.805 125.403 315.524 125.403L316.496 101.729L316.072 125.403H316.247C316.522 124.438 316.669 123.441 316.683 122.438C316.795 120.694 316.857 119.585 316.857 119.099L316.982 99.636C316.982 98.9133 317.107 97.8168 317.219 96.3714H317.343C317.588 95.011 317.688 93.6286 317.642 92.2471C317.62 91.8321 317.62 91.4161 317.642 91.0011C318.06 92.3129 318.246 93.6875 318.191 95.0631C318.191 96.6331 318.191 98.8011 318.191 101.418C318.191 104.657 318.128 106.215 318.128 106.09L318.44 95.1129L318.677 95.0008C318.771 95.3178 318.834 95.6433 318.864 95.9727L318.726 126.201ZM284.835 117.653C284.412 113.364 284.208 109.055 284.224 104.745V113.105C284.299 114.636 284.503 116.157 284.835 117.653ZM285.807 116.569L285.508 109.716V113.454L285.807 116.569ZM295.825 91.1631C295.13 90.0994 294.201 89.2086 293.108 88.5589H289.707L288.623 88.7957C292.361 89.319 294.654 90.1164 295.588 91.1631C295.675 93.9915 295.688 97.5053 295.588 101.717L295.825 91.1631ZM307.163 123.111C305.307 125.379 302.441 126.463 298.554 126.388C298.829 126.388 299.104 126.409 299.376 126.45C299.629 126.463 299.883 126.463 300.136 126.45C302.765 126.45 304.659 125.914 305.83 124.818C306.204 124.363 306.621 123.945 307.076 123.572L307.163 123.111ZM313.394 125.603C313 125.534 312.613 125.434 312.235 125.304H309.93L310.054 125.491C310.96 125.594 311.872 125.631 312.783 125.603H313.394Z" fill="#D7D7D7"/>
<path d="M341.641 91.1007C341.564 92.6847 341.296 94.2535 340.843 95.7733C340.287 97.9912 339.664 99.3244 338.974 99.773C337.369 99.7961 335.818 100.363 334.576 101.38C333.645 102.649 333.203 104.21 333.33 105.779C333.33 106.339 333.23 107.473 333.155 109.168C333.043 110.277 333.001 111.393 333.031 112.507L333.33 122.388C333.493 124.215 332.998 126.04 331.934 127.534L331.822 127.958C332.19 127.733 332.532 127.47 332.844 127.173C333.292 126.762 333.517 126.487 333.517 126.325L333.629 114.688L333.753 126.325C333.026 127.55 331.979 128.553 330.726 129.229L330.601 129.054H322.726C321.912 128.511 321.16 127.88 320.483 127.173C319.955 126.366 319.718 125.404 319.811 124.444L319.997 112.258C319.997 111.012 319.935 109.031 319.811 106.439C319.686 103.847 319.636 101.916 319.636 100.62C319.56 99.1834 319.635 97.7426 319.86 96.3215L320.159 96.5583C320.825 99.838 321.135 103.18 321.082 106.526C321.192 106.259 321.235 105.967 321.206 105.679C321.206 104.296 321.131 101.941 320.969 98.527C320.758 95.4867 320.683 93.1068 320.72 91.3749C321.154 92.0168 321.368 92.7817 321.331 93.5554C321.331 95.0506 321.268 95.8107 321.268 95.8605C321.268 96.2218 321.53 97.6548 321.929 100.159C322.191 101.578 322.336 103.016 322.365 104.458V106.103L322.739 105.741C322.853 105.43 322.908 105.101 322.901 104.769C322.901 104.321 322.863 103.673 322.789 102.826C322.701 101.978 322.664 101.33 322.664 100.882H322.888C323.179 101.871 323.346 102.892 323.387 103.922C323.387 104.807 323.387 105.941 323.387 107.311V110.401C323.387 111.647 323.474 113.803 323.636 116.955C323.748 119.697 323.798 121.865 323.748 123.435L323.873 123.497L323.935 123.435C323.935 123.036 323.997 122.326 323.997 121.316C323.997 120.307 323.935 118.949 323.81 117.005C323.686 115.062 323.636 113.616 323.636 112.644L323.997 112.707C323.997 112.258 323.997 111.61 323.935 110.738C323.873 109.866 323.873 109.218 323.873 108.769C323.831 108.004 323.955 107.24 324.234 106.526C325.173 108.462 325.497 114.139 325.206 123.559C326.44 123.781 327.69 123.902 328.944 123.921L329.243 107.922C329.281 105.999 329.527 104.085 329.978 102.215C330.392 100.63 331.316 99.2245 332.607 98.2155C333.782 97.1082 335.329 96.4813 336.943 96.4586H337.305C337.791 96.4586 338.04 95.549 338.04 93.7298C338.04 92.5586 337.952 91.3873 337.915 90.2161H337.242C336.395 90.2321 335.555 90.3749 334.75 90.6397C333.922 90.8492 333.195 91.3432 332.694 92.0353V93.6177L332.208 93.5554V94.0413H331.411C331.411 94.0413 330.913 93.9416 330.028 93.7298L329.966 93.2439C329.068 92.7704 328.607 92.5212 328.57 92.5212C329.006 91.8733 329.455 91.2752 329.903 90.702L328.869 90.5276H329.467C329.903 90.5276 330.19 90.5276 330.314 90.2784C328.704 90.1802 327.101 89.9762 325.517 89.6678H326.003C325.193 89.6678 324.01 89.5183 322.427 89.3563L322.975 88.9327H330.377C329.48 88.7369 328.566 88.6367 327.648 88.6336C326.066 88.6336 325.156 88.6336 324.795 88.5713V88.3844C325.424 88.1879 326.079 88.0871 326.738 88.0854H330.377L331.523 89.2317C332.894 87.7864 335.348 87.0512 338.862 87.0512C339.561 87.5966 340.227 88.1833 340.856 88.8081C341.381 89.455 341.659 90.2676 341.641 91.1007ZM322.116 95.6487L321.842 96.4337L321.206 90.2036C321.759 91.9681 322.065 93.8004 322.116 95.6487ZM330.601 128.568C329.962 128.72 329.312 128.82 328.657 128.867L323.15 128.568H330.601ZM332.183 115.174V107.959C332.01 110.361 332.01 112.772 332.183 115.174ZM337.94 89.6429H337.205C336.374 89.6868 335.556 89.8722 334.788 90.1912C333.984 90.4134 333.254 90.8431 332.669 91.4372C333.857 90.567 335.264 90.045 336.731 89.9295C337.149 89.9141 337.56 89.8167 337.94 89.6429ZM337.753 96.795H337.205C336.168 96.9469 335.165 97.2757 334.239 97.7669C335.373 97.3201 336.551 96.9944 337.753 96.795Z" fill="#D7D7D7"/>
<path d="M377.463 123.223C377.553 126.034 377.024 128.831 375.912 131.414C374.801 133.998 373.136 136.306 371.034 138.175C366.815 141.959 361.298 143.967 355.633 143.782C351.74 143.78 347.954 142.502 344.855 140.144C341.635 137.845 339.147 134.665 337.691 130.986C338.054 130.29 338.47 129.623 338.937 128.992C339.187 128.686 339.506 128.445 339.867 128.286C340.229 128.128 340.623 128.058 341.018 128.082L346.749 128.444L346.512 128.207C343.527 126.121 341.011 123.434 339.124 120.32C337.406 117.095 336.548 113.481 336.632 109.828C336.604 107.139 337.121 104.473 338.151 101.989C339.181 99.505 340.703 97.2551 342.625 95.3746C344.47 93.4227 346.698 91.8738 349.171 90.8252C351.643 89.7766 354.306 89.251 356.991 89.2816C360.543 89.2784 364.003 90.4042 366.872 92.4963C367.321 92.4215 367.582 92.0727 367.67 91.4621H373.239C371.57 91.8199 369.86 91.954 368.156 91.8608L367.545 92.1474V92.2596L375.308 92.0104C372.874 92.1765 370.203 92.5005 367.296 92.9822C368.471 93.9057 369.389 95.1156 369.962 96.496C368.971 97.2547 367.806 97.7556 366.573 97.9538L366.449 97.7669L366.087 97.9538L365.851 97.7669L364.879 97.9538L365.178 97.2311L365.414 97.6548H365.664C366.15 97.6548 366.386 97.0443 366.386 95.8356C366.386 95.1503 365.664 94.4401 364.206 93.7049L364.031 93.5928V93.7049C363.111 93.2681 362.127 92.9821 361.116 92.8577L361.477 93.1069C360.578 92.9195 359.665 92.7987 358.748 92.7455C354.04 92.5731 349.422 94.074 345.715 96.9819C343.899 98.4643 342.451 100.347 341.485 102.483C340.518 104.619 340.06 106.95 340.145 109.293C340.067 113.953 341.658 118.487 344.631 122.077C346.032 123.907 347.84 125.386 349.912 126.396C351.984 127.406 354.263 127.919 356.568 127.895C358.101 127.879 359.62 127.592 361.053 127.048C362.52 126.668 363.807 125.786 364.692 124.556C362.475 126.575 359.565 127.66 356.568 127.584C354.325 127.59 352.111 127.084 350.094 126.103C348.077 125.123 346.311 123.694 344.93 121.927C341.998 118.499 340.405 114.127 340.444 109.616C340.276 106.61 341.061 103.628 342.687 101.094L342.812 101.642C343.74 99.9904 344.95 98.5144 346.388 97.281C348.365 95.412 349.922 94.5813 351.06 94.789L350.873 95.1005C344.818 98.8468 341.786 103.831 341.778 110.053C341.778 116.698 344.407 121.387 349.665 124.12C351.916 125.45 354.446 126.239 357.054 126.425C360.368 126.425 363.346 124.805 365.963 121.578L369.85 123.273V123.696C369.85 123.821 369.564 124.942 369.003 126.973C368.353 129.597 366.767 131.893 364.542 133.428C362.285 134.958 359.606 135.747 356.879 135.683C355.228 135.716 353.59 135.384 352.082 134.711C350.658 133.964 349.281 133.132 347.958 132.219L342.388 132.095L342.326 132.219C343.682 134.907 345.903 137.062 348.631 138.337C351.244 139.797 354.185 140.568 357.178 140.58C361.269 140.562 365.217 139.076 368.305 136.393C371.508 133.902 373.643 130.284 374.274 126.276C374.718 122.838 374.938 119.375 374.934 115.909C374.984 112.47 375.025 109.014 375.059 105.542L374.884 123.485C374.867 125.79 374.369 128.066 373.423 130.169C372.477 132.271 371.103 134.153 369.389 135.695C366.05 138.966 361.553 140.784 356.879 140.754C354.554 140.725 352.253 140.273 350.088 139.421H349.839C352.141 140.629 354.718 141.214 357.315 141.116C361.39 141.113 365.329 139.65 368.417 136.991C371.629 134.466 373.838 130.879 374.647 126.874C374.86 125.813 375.001 124.739 375.071 123.659C375.071 119.572 375.158 115.498 375.196 111.411C375.185 107.319 375.405 103.23 375.856 99.1625H375.981C376.206 98.2504 376.286 97.3084 376.217 96.3714C376.181 95.2609 376.222 94.1492 376.342 93.0446C376.699 94.5924 376.863 96.1787 376.828 97.7669C376.828 99.5861 376.828 102.041 376.828 105.106V110.501L377.127 97.7046H377.364C377.459 98 377.522 98.3051 377.551 98.6142L377.463 123.223ZM370.249 110.302C370.298 111.942 370.023 113.575 369.439 115.108C368.855 116.641 367.975 118.044 366.847 119.236C365.716 120.419 364.348 121.349 362.832 121.965C361.315 122.581 359.686 122.87 358.051 122.812C356.468 122.874 354.892 122.595 353.427 121.993C351.963 121.391 350.646 120.48 349.565 119.323C347.39 116.911 346.237 113.747 346.35 110.501C346.318 108.289 346.952 106.118 348.17 104.271C349.415 102.454 351.295 101.169 353.44 100.67C351.456 101.536 349.696 102.845 348.294 104.495C347.061 106.267 346.444 108.395 346.537 110.551C346.44 112.45 346.872 114.339 347.783 116.009C347.783 116.009 347.609 115.211 347.272 113.728C346.999 112.73 346.824 111.708 346.749 110.676C346.748 108.223 347.569 105.841 349.079 103.91C349.727 102.971 350.592 102.203 351.601 101.672C352.61 101.14 353.733 100.86 354.873 100.857L357.178 101.094C357.724 100.912 358.298 100.832 358.873 100.857C359.431 100.828 359.99 100.908 360.518 101.094H358.512C356.578 101.159 354.686 101.68 352.992 102.614H353.116C353.872 102.285 354.668 102.058 355.484 101.941L356.144 102.003L355.907 102.302C351.584 103.611 349.416 106.24 349.416 110.215C349.371 112.463 350.197 114.641 351.721 116.295C352.412 117.156 353.289 117.849 354.286 118.324C355.283 118.798 356.373 119.042 357.477 119.036C359.011 118.969 360.503 118.515 361.813 117.716C363.408 116.831 364.231 115.884 364.305 114.85C362.486 117.342 360.343 118.588 357.876 118.588C357.388 118.557 356.903 118.478 356.431 118.351H357.153C358.186 118.432 359.223 118.292 360.197 117.94C361.171 117.587 362.058 117.031 362.799 116.308C363.54 115.584 364.118 114.711 364.494 113.746C364.87 112.781 365.035 111.747 364.978 110.713C365.064 109.102 364.627 107.507 363.732 106.165C362.628 104.95 361.316 103.941 359.857 103.187C360.057 102.913 360.256 102.763 360.468 102.763C361.25 102.82 362.009 103.051 362.69 103.439C363.372 103.827 363.958 104.363 364.405 105.006V104.894C363.588 103.902 362.552 103.112 361.377 102.589C360.181 102.128 358.92 101.859 357.639 101.792C357.739 101.665 357.869 101.566 358.017 101.503C358.165 101.439 358.326 101.415 358.487 101.43C359.175 101.445 359.862 101.507 360.543 101.617C361.602 101.742 362.287 101.792 362.611 101.792L362.187 101.617C362.37 101.612 362.553 101.647 362.721 101.72C362.889 101.794 363.038 101.903 363.159 102.041L362.611 101.916C363.163 102.107 363.67 102.411 364.099 102.807C364.528 103.204 364.87 103.686 365.103 104.221L365.414 103.673C365.331 103.349 364.584 102.664 363.172 101.617C364.779 101.816 366.162 103.125 367.283 105.555C368.172 107.39 368.649 109.397 368.679 111.436C368.578 113.417 367.835 115.311 366.561 116.831C365.372 118.393 363.891 119.709 362.2 120.706L362.137 120.893C364.135 120.131 365.85 118.776 367.053 117.009C368.256 115.242 368.889 113.149 368.866 111.012C368.837 110.376 368.737 109.744 368.567 109.131C368.391 108.539 368.287 107.928 368.255 107.311V106.95L368.505 107.012L366.847 103.287H367.146C367.919 103.287 368.667 104.284 369.389 106.265C369.887 107.561 370.177 108.928 370.249 110.314V110.302ZM358.487 132.556H358.25L356.73 132.618C354.303 132.635 351.961 131.721 350.188 130.064C350.987 130.938 351.962 131.633 353.048 132.103C354.135 132.574 355.309 132.808 356.493 132.792L358.487 132.556ZM366.424 93.7548C364.405 91.5369 361.336 90.4279 357.216 90.4279C354.85 90.4655 352.51 90.9167 350.3 91.7612L350.487 91.8235C352.585 91.0539 354.795 90.633 357.029 90.5775C360.443 90.4724 363.779 91.6053 366.424 93.7672V93.7548ZM362.686 92.8452C360.8 92.1553 358.812 91.7888 356.804 91.7612C354.948 91.8895 353.103 92.1519 351.285 92.5462L352.194 92.8452C353.032 92.8131 353.865 92.7131 354.686 92.5462C355.508 92.3799 356.341 92.2799 357.178 92.2471C358.504 92.266 359.825 92.4289 361.116 92.733L360.991 92.4839C361.559 92.5726 362.121 92.6974 362.673 92.8577L362.686 92.8452ZM361.103 130.064C359.631 130.521 358.097 130.748 356.555 130.736C355.023 130.685 353.501 130.459 352.02 130.064C353.509 130.628 355.087 130.919 356.68 130.923C358.198 131.022 359.717 130.73 361.091 130.076L361.103 130.064ZM361.838 130.437C360.404 130.901 358.919 131.185 357.415 131.285C356.015 131.305 354.616 131.221 353.228 131.035C354.269 131.532 355.403 131.804 356.555 131.833C358.413 131.828 360.239 131.352 361.863 130.45L361.838 130.437ZM366.561 128.68C365.83 129.991 364.813 131.12 363.586 131.983C362.358 132.846 360.952 133.421 359.471 133.664H359.895C361.289 133.513 362.599 132.919 363.633 131.97C364.843 131.116 365.841 129.995 366.548 128.693L366.561 128.68Z" fill="#D7D7D7"/>
<path d="M419.952 108.869C420.047 109.982 419.818 111.098 419.292 112.084C418.554 112.845 417.763 113.553 416.925 114.202C417.859 115.572 418.32 116.283 418.32 116.32C418.32 117.092 417.269 118.629 415.168 120.93C413.855 122.425 412.417 123.804 410.869 125.054C407.35 127.517 403.152 128.824 398.857 128.793C394.691 128.852 390.615 127.582 387.22 125.167C383.831 122.72 381.187 119.382 379.582 115.523C378.733 113.005 378.365 110.351 378.498 107.698C378.385 104.828 378.901 101.968 380.01 99.3187C381.118 96.6692 382.792 94.294 384.915 92.3592C389.269 88.5592 394.9 86.5473 400.677 86.7272C400.316 86.7037 399.954 86.7037 399.593 86.7272C393.163 86.7272 388.071 88.6876 384.317 92.6084C380.786 96.2467 378.643 101.318 377.887 107.822V107.025C377.798 104.309 378.297 101.606 379.348 99.1012C380.4 96.596 381.98 94.3473 383.98 92.5087C385.894 90.5277 388.188 88.9545 390.726 87.8838C393.263 86.8132 395.991 86.2671 398.745 86.2786C401.656 86.1844 404.552 86.7264 407.231 87.8671C409.911 89.0077 412.309 90.7193 414.258 92.8825C418.115 97.2965 420.15 103.011 419.952 108.869ZM382.31 118.376C380.215 114.648 379.189 110.414 379.345 106.14L379.283 109.878C379.383 111.419 379.732 112.934 380.317 114.364C380.699 115.824 381.378 117.189 382.31 118.376ZM414.981 108.495C414.943 105.202 414.022 101.979 412.314 99.1624C410.814 96.201 408.297 93.8789 405.225 92.6208C402.838 91.8602 400.339 91.5105 397.836 91.5866C395.714 91.5377 393.609 91.9593 391.67 92.8211C389.731 93.6828 388.007 94.9634 386.622 96.5707C383.809 99.7618 382.297 103.893 382.385 108.146C382.361 110.394 382.789 112.624 383.646 114.703C384.502 116.782 385.768 118.666 387.369 120.245C388.908 121.869 390.766 123.157 392.827 124.028C394.887 124.899 397.106 125.333 399.343 125.304C402.469 125.326 405.536 124.462 408.19 122.812C410.899 121.148 413.152 118.835 414.744 116.083L406.857 115.896C405.552 116.748 404.195 117.518 402.795 118.201C401.349 118.558 399.859 118.701 398.372 118.625C397.691 118.623 397.016 118.501 396.378 118.264C397.249 118.26 398.119 118.318 398.982 118.438C402.62 118.438 405.229 117.45 406.807 115.473C405.673 116.083 404.564 116.719 403.493 117.292C402.233 117.945 400.824 118.259 399.406 118.201C398.071 118.274 396.737 118.038 395.508 117.513C394.279 116.988 393.187 116.188 392.316 115.174H392.615C391.828 114.395 391.172 113.495 390.671 112.507C390.396 112.586 390.111 112.628 389.824 112.632H389.4V112.569L390.559 112.27C390.42 112.03 390.335 111.762 390.31 111.485C390.291 111.366 390.291 111.244 390.31 111.124C390.634 111.236 390.895 111.61 391.095 112.208C395.306 112.009 397.562 111.909 397.886 111.909C398.26 111.896 398.633 111.96 398.982 112.096L391.344 112.52L391.469 112.756H391.83C392.677 112.756 393.761 112.756 395.095 112.756C396.839 112.669 397.923 112.632 398.372 112.632L402.259 112.034C404.683 111.669 407.135 111.523 409.586 111.598L414.744 111.784L414.009 111.174C412.921 111.099 410.254 111.099 406.01 111.174L406.259 110.999C409.648 110.588 411.828 110.389 412.8 110.389C413.471 110.381 414.142 110.422 414.806 110.514C414.854 110.183 414.883 109.85 414.894 109.517C414.981 109.093 414.981 108.744 414.981 108.495ZM416.563 107.473C416.39 102.816 414.463 98.3964 411.167 95.101C407.872 91.8056 403.452 89.8781 398.795 89.7052C396.599 89.6566 394.416 90.0621 392.383 90.8961C390.351 91.7301 388.512 92.9748 386.983 94.5522C389.924 91.6448 393.903 90.1911 398.92 90.1911C401.629 90.1825 404.3 90.8282 406.706 92.0734C409.111 93.3186 411.181 95.1265 412.738 97.3432C413.469 98.3009 414.12 99.3178 414.682 100.383C415.318 101.374 415.743 102.485 415.928 103.648L415.866 103.897L415.629 103.773V104.072C415.647 104.774 415.718 105.473 415.841 106.165C415.957 106.815 416.028 107.473 416.052 108.134C416.055 108.605 415.992 109.075 415.866 109.529H416.476C416.55 108.847 416.579 108.16 416.563 107.473ZM408.801 102.676C408.692 102.837 408.548 102.97 408.379 103.065C408.211 103.16 408.022 103.215 407.829 103.224C407.788 103.589 407.788 103.956 407.829 104.321C407.698 104.325 407.57 104.28 407.471 104.194C407.372 104.109 407.308 103.99 407.293 103.86C407.206 103.561 407.069 103.411 406.857 103.411L406.682 103.835C406.353 103.58 406.066 103.272 405.835 102.925C405.486 103.156 405.119 103.36 404.739 103.536H404.988L404.676 103.91L404.253 103.785L404.739 103.598H402.247C402.321 104.009 402.409 104.209 402.483 104.209C402.558 104.209 403.331 104.146 404.303 104.022L404.427 104.271C403.24 104.578 402.013 104.7 400.789 104.632C399.952 104.658 399.119 104.75 398.297 104.907C397.498 105.054 396.691 105.146 395.88 105.181C395.108 105.154 394.338 105.083 393.574 104.969C392.791 104.846 392 104.775 391.207 104.757C390.54 104.737 389.873 104.774 389.213 104.869C390.653 105.13 392.112 105.271 393.574 105.293C394.256 105.293 395.265 105.243 396.602 105.143C397.935 105.044 398.932 104.994 399.58 104.994L399.456 105.293C399.729 105.307 400.004 105.307 400.278 105.293C400.546 105.252 400.817 105.231 401.088 105.23C401.433 105.237 401.77 105.341 402.06 105.53C401.736 106.177 400.689 106.539 398.907 106.626C400.004 106.539 398.833 106.501 395.394 106.501C395.024 106.517 394.657 106.567 394.297 106.651C393.941 106.734 393.578 106.784 393.213 106.8C392.529 106.772 391.849 106.681 391.182 106.526C390.272 106.352 389.612 106.24 389.213 106.202L386.971 103.162C387.943 100.964 389.466 99.0538 391.394 97.6173C393.393 96.3872 395.716 95.788 398.06 95.8979C402.903 95.8979 406.155 97.7336 407.816 101.405C405.474 97.8915 402.504 96.1346 398.907 96.1346C398.237 96.1017 397.566 96.1647 396.914 96.3215C399.088 96.4267 401.242 96.7906 403.331 97.4055C405.303 98.4169 406.852 100.095 407.704 102.14H408.365C408.155 102.36 407.971 102.602 407.816 102.863C408.152 102.849 408.483 102.786 408.801 102.676ZM390.733 100.496C390.367 100.701 390.055 100.992 389.824 101.343H390.198L390.733 100.496ZM394.011 99.586H393.649C393.263 99.7139 392.907 99.9205 392.605 100.193C392.302 100.465 392.06 100.797 391.892 101.168C392.515 100.528 393.229 99.9821 394.011 99.5487V99.586ZM406.62 112.981L391.892 113.23C393.296 115.722 395.863 116.935 399.593 116.868H400.191C396.353 116.868 393.77 115.755 392.441 113.529V113.417L395.481 115.199C396.531 115.798 397.723 116.103 398.932 116.083C400.87 116.2 402.785 115.616 404.327 114.438C402.567 114.479 400.806 114.4 399.057 114.202L398.87 114.015C400.042 113.611 401.269 113.388 402.508 113.354C403.754 113.354 405 113.255 406.246 113.168L406.62 112.981ZM404.253 100.982C402.752 99.9013 400.955 99.3096 399.107 99.287C398.006 99.2904 396.919 99.5283 395.917 99.9848C394.895 100.446 393.873 100.907 392.864 101.343H399.655L404.253 100.982ZM415.292 116.083H414.931C413.313 119.036 410.894 121.471 407.953 123.111C405.1 124.927 401.748 125.798 398.372 125.603C398.917 125.678 399.466 125.719 400.016 125.727C403.215 125.696 406.335 124.725 408.988 122.936C411.656 121.247 413.831 118.883 415.292 116.083ZM405.474 102.315L405.349 102.016H404.988C404.494 102.033 404.004 102.113 403.53 102.252C402.72 102.414 402.284 102.514 402.072 102.564H403.318C403.443 102.564 404.228 102.477 405.474 102.315ZM406.558 111.535C405.424 111.647 404.577 111.71 404.066 111.71C404.469 111.564 404.887 111.464 405.312 111.411L406.558 111.535ZM414.869 115.597H411.343C412.04 115.597 413.05 115.66 414.383 115.772L414.869 115.597Z" fill="#D7D7D7"/>
<path d="M442.991 91.1008C442.92 92.6843 442.656 94.2534 442.206 95.7733C441.633 97.9912 440.96 99.3244 440.325 99.773C438.719 99.7961 437.169 100.363 435.926 101.38C434.996 102.649 434.553 104.211 434.68 105.779C434.68 106.339 434.568 107.473 434.493 109.168C434.381 110.277 434.339 111.393 434.369 112.507L434.68 122.388C434.838 124.215 434.344 126.038 433.285 127.534L433.16 127.958C433.532 127.734 433.879 127.471 434.194 127.173C434.63 126.762 434.855 126.487 434.855 126.325L434.979 114.688L435.104 126.325C434.373 127.551 433.322 128.555 432.064 129.229L431.952 129.054H424.064C423.25 128.511 422.498 127.88 421.821 127.173C421.292 126.367 421.058 125.403 421.161 124.444L421.336 112.258C421.336 111.012 421.273 109.031 421.161 106.439C421.049 103.847 420.974 101.916 420.974 100.62C420.891 99.183 420.97 97.741 421.211 96.3216L421.497 96.5583C422.163 99.8382 422.476 103.18 422.432 106.526C422.53 106.255 422.568 105.966 422.544 105.679C422.544 104.296 422.469 101.941 422.307 98.527C422.108 95.4867 422.021 93.1069 422.071 91.3749C422.49 92.0226 422.699 92.7843 422.669 93.5554C422.669 95.0506 422.606 95.8107 422.606 95.8605C422.606 96.2219 422.868 97.6548 423.279 100.159C423.538 101.578 423.679 103.016 423.703 104.458V106.103L424.164 105.779C424.272 105.466 424.327 105.138 424.326 104.807C424.326 104.358 424.326 103.71 424.201 102.863C424.077 102.016 424.077 101.368 424.077 100.919H424.301C424.597 101.908 424.768 102.929 424.812 103.96C424.812 104.844 424.812 105.978 424.812 107.349V110.439C424.812 111.685 424.887 113.84 425.049 116.993C425.173 119.734 425.211 121.902 425.173 123.472L425.298 123.534V123.472C425.333 122.766 425.333 122.06 425.298 121.354C425.298 120.419 425.298 118.986 425.123 117.043C424.949 115.099 424.936 113.654 424.936 112.682L425.298 112.744C425.298 112.295 425.298 111.647 425.298 110.775C425.298 109.903 425.298 109.255 425.298 108.807C425.25 108.041 425.374 107.275 425.659 106.564C426.581 108.499 426.905 114.177 426.631 123.597C427.865 123.82 429.115 123.941 430.369 123.958L430.681 107.959C430.708 106.036 430.951 104.122 431.403 102.253C431.816 100.663 432.745 99.2562 434.045 98.2529C435.22 97.1456 436.767 96.5187 438.381 96.496H438.742C439.228 96.496 439.465 95.5864 439.465 93.7672C439.465 92.596 439.39 91.4247 439.34 90.2535H438.68C437.833 90.2708 436.993 90.4136 436.188 90.6771C435.36 90.8866 434.632 91.3806 434.132 92.0727V93.6551L433.646 93.5928V94.0787H432.861C432.861 94.0787 432.35 93.9791 431.466 93.7672L431.403 93.2813C430.519 92.8078 430.045 92.5586 430.008 92.5586C430.456 91.9107 430.892 91.3126 431.341 90.7394L430.307 90.565H430.98C431.428 90.565 431.702 90.565 431.827 90.3158C430.22 90.2174 428.622 90.0134 427.042 89.7053H427.528C426.718 89.7053 425.522 89.5557 423.952 89.3937L424.488 88.9701H431.889C430.993 88.7744 430.078 88.6741 429.16 88.6711C427.59 88.6711 426.668 88.6711 426.307 88.6088V88.4219C426.932 88.2245 427.583 88.1237 428.238 88.1228H431.877L433.036 89.2691C434.406 87.8238 436.848 87.0886 440.362 87.0886C441.061 87.6391 441.73 88.2256 442.368 88.8455C442.828 89.5036 443.048 90.2998 442.991 91.1008ZM423.466 95.6487L423.192 96.4337L422.557 90.2036C423.116 91.9665 423.422 93.7998 423.466 95.6487ZM431.964 128.568C431.325 128.72 430.675 128.82 430.02 128.867L424.5 128.568H431.964ZM433.534 115.174V107.959C433.361 110.361 433.361 112.772 433.534 115.174ZM439.291 89.6429H438.568C437.733 89.6852 436.911 89.8706 436.138 90.1912C435.336 90.4171 434.607 90.8463 434.02 91.4372C435.209 90.5688 436.615 90.0469 438.082 89.9295C438.5 89.9154 438.911 89.818 439.291 89.6429ZM439.116 96.795H438.568C437.527 96.9446 436.519 97.2734 435.59 97.7669C436.729 97.3224 437.91 96.9967 439.116 96.795Z" fill="#D7D7D7"/>
<path d="M222.31 126.662L219.033 129.877C217.678 129.847 216.322 129.888 214.971 130.001C213.04 130.113 211.707 130.176 210.972 130.176C210.428 130.182 209.89 130.066 209.398 129.835C208.906 129.604 208.473 129.265 208.131 128.842C207.567 129.056 206.957 129.12 206.361 129.029L206.249 128.78C206.464 128.382 206.706 127.999 206.972 127.634C206.735 127.434 206.386 127.11 205.938 126.662V107.386H202.374C197.922 109.729 194.89 110.9 193.278 110.9C193.361 114.139 193.361 119.028 193.278 125.565V126.6C192.157 127.646 191.035 128.78 189.951 130.001C189.266 130.001 188.257 130.001 186.948 130.001C185.64 130.001 184.693 130.064 184.132 130.064C182.202 130.202 180.27 129.806 178.55 128.917C177.055 127.908 176.308 126.039 176.308 123.335L176.183 89.6928C176.225 89.133 176.351 88.5828 176.557 88.0605C177.313 89.3065 177.794 97.9953 178.002 114.127C178.151 113.891 178.237 113.621 178.251 113.342L177.529 76.7841C177.573 76.3574 177.673 75.9384 177.828 75.5381C178.117 77.1373 178.259 78.7598 178.251 80.385C178.251 83.3381 178.55 87.8611 179.036 94.0912C179.452 99.9059 179.655 104.429 179.647 107.66C179.647 109.529 179.647 111.324 179.522 113.055L179.771 112.52L180.195 112.084C180.27 111.934 180.307 107.714 180.307 99.4241C181.258 107.294 181.554 115.229 181.192 123.148H181.74C181.649 120.132 181.77 117.114 182.101 114.115C182.392 114.563 182.737 117.533 183.136 123.024C183.616 123.116 184.105 123.158 184.593 123.148C185.161 123.15 185.727 123.108 186.288 123.024C186.288 118.779 186.371 112.416 186.537 103.935C187.67 102.718 188.886 101.582 190.176 100.533L198.175 100.359L208.056 100.595C208.443 100.618 208.828 100.681 209.202 100.782C209.877 101.293 210.487 101.883 211.021 102.539C211.617 103.085 212.129 103.714 212.542 104.408L212.292 119.36C215.145 113.398 216.655 106.881 216.716 100.271L217.326 74.4665H210.785C210.785 84.8084 210.623 91.4787 210.299 94.4774C209.89 94.836 209.503 95.2189 209.14 95.6238C208.315 95.7447 207.481 95.7864 206.648 95.7484L197.315 95.3247C195.895 95.3247 194.499 95.3247 193.129 95.3247C191.744 95.3651 190.377 95.0061 189.191 94.2905L189.129 93.7423L189.615 78.9521L189.74 94.4151C190.263 80.9582 190.525 74.1259 190.525 73.9182C190.525 72.9962 190.275 72.448 189.789 72.286L187.92 72.0368C188.609 72.021 189.295 71.9627 189.976 71.8623C188.319 71.7216 186.653 71.7007 184.992 71.8C183.322 71.9109 181.645 71.7893 180.008 71.4387C180.868 70.8655 184.294 70.7534 190.325 71.0773L190.014 70.7036C188.61 70.6644 187.21 70.5228 185.827 70.2799C186.945 70.0405 188.085 69.9194 189.229 69.9186H190.138C191.146 70.9985 192.067 72.1568 192.892 73.3825C193.213 74.935 193.297 76.5272 193.141 78.1048L192.717 91.6241H206.349V72.9339C207.047 72.1988 207.744 71.4885 208.48 70.7783C208.817 70.4234 209.223 70.1401 209.673 69.9453C210.122 69.7505 210.606 69.6482 211.096 69.6444C212.449 69.6921 213.791 69.897 215.096 70.255C216.399 70.6626 217.739 70.9462 219.096 71.1023C219.868 71.5384 220.628 72.0119 221.401 72.4978C221.694 72.8364 221.91 73.2345 222.035 73.6646C222.16 74.0948 222.19 74.5469 222.123 74.9898C222.123 76.6512 221.961 83.8656 221.637 96.633C221.438 105.405 221.338 112.636 221.338 118.326C221.338 121.209 221.338 123.979 221.338 126.637L221.089 127.061L221.887 126.276L222.186 120.943L222.31 126.662ZM179.447 86.2288C179.413 86.9356 179.329 87.6392 179.198 88.3346C178.949 86.3493 178.787 83.7659 178.712 80.5844C178.588 76.3729 178.509 73.8061 178.476 72.8841C179.213 77.2924 179.534 81.7603 179.435 86.2288H179.447ZM179.697 96.0474C179.705 97.446 179.784 98.8434 179.933 100.234L180.058 98.1656C180.058 98.1656 179.946 97.5053 179.684 96.0474H179.697ZM181.628 124.967L181.03 124.357V124.967H181.628ZM186.301 125.516V125.142H183.933L186.301 125.516ZM210.909 104.333C210.532 103.702 210.061 103.131 209.514 102.639C208.877 102.215 208.122 102.005 207.358 102.041H190.711L189.864 102.215C189.152 102.727 188.518 103.34 187.983 104.034L187.871 104.832L188.107 119.921C188.107 110.335 188.228 105.06 188.469 104.097C188.755 102.963 189.964 102.402 192.107 102.402C193.926 102.402 196.642 102.481 200.256 102.639C203.869 102.797 206.59 102.88 208.417 102.888C209.713 102.888 210.361 103.719 210.361 105.38L210.535 119.148L210.909 104.333ZM189.727 124.942H188.294L188.17 125.727L188.531 126.151L189.727 124.942ZM210.336 74.5039C210.253 78.948 210.029 85.5934 209.663 94.4401C209.495 94.6897 209.268 94.8949 209.003 95.0382H207.508C207.059 95.0382 201.381 94.9177 190.475 94.6768C193.361 95.1173 196.277 95.3422 199.197 95.3497H208.056C209.464 95.3497 210.187 94.8263 210.236 93.7672L210.336 74.5039ZM192.269 91.5991V86.6899L191.721 80.7464V91.5991H192.269ZM207.296 107.424H206.237V111.423C206.293 110.021 206.641 108.646 207.258 107.386L207.296 107.424ZM207.296 127.185C207.069 127.056 206.874 126.877 206.727 126.661C206.58 126.445 206.485 126.198 206.449 125.939C206.374 125.391 206.311 124.855 206.274 124.332V126.575L207.121 127.422L207.296 127.185ZM216.454 129.129C215.345 129.446 214.211 129.666 213.065 129.789H211.819C211.032 129.807 210.245 129.765 209.464 129.665L208.554 128.818H208.916C208.916 129.017 209.539 129.141 210.673 129.179C211.482 129.179 212.616 129.179 214.062 129.179L216.454 129.129ZM218.273 126.026L217.027 125.852L216.903 126.026H218.273ZM219.058 86.2662L218.759 116.694H218.572L218.884 86.2662H219.058ZM220.391 123.647V103.935C220.229 105.019 220.155 105.629 220.155 105.741L220.391 123.647Z" fill="#D7D7D7"/>
</svg>
